<svg width="300" height="530" viewBox="0 0 300 530" fill="none" xmlns="http://www.w3.org/2000/svg">
<path d="M63.4889 34.2087H60.5693V27.3998H53.2648V34.2087H50.3452V18.6301H53.2648V25.3313H60.5693V18.6301H63.4889V34.2087Z" fill="#3A4959"/>
<path d="M77.5346 18.6301V20.9357H70.6288V25.2559H76.0694V27.486H70.6288V31.8924H77.5346V34.2087H67.7092V18.6301H77.5346Z" fill="#3A4959"/>
<path d="M94.8104 34.2087H92.5695C92.3181 34.2087 92.1098 34.1476 91.9446 34.0255C91.7866 33.8963 91.6717 33.7382 91.5998 33.5515L90.4363 30.3733H83.9829L82.8194 33.5515C82.7619 33.7167 82.647 33.8675 82.4746 34.004C82.3094 34.1405 82.1047 34.2087 81.8605 34.2087H79.6089L85.7283 18.6301H88.691L94.8104 34.2087ZM84.7263 28.3263H89.6929L87.7968 23.1442C87.7106 22.9144 87.6136 22.6451 87.5059 22.3362C87.4053 22.0202 87.3048 21.679 87.2042 21.3127C87.1037 21.679 87.0031 22.0202 86.9026 22.3362C86.8092 22.6523 86.7158 22.9288 86.6225 23.1658L84.7263 28.3263Z" fill="#3A4959"/>
<path d="M100.39 31.817H106.628V34.2087H97.4921V18.6301H100.39V31.817Z" fill="#3A4959"/>
<path d="M118.785 18.6301V21.0111H114.099V34.2087H111.201V21.0111H106.493V18.6301H118.785Z" fill="#3A4959"/>
<path d="M134.843 34.2087H131.923V27.3998H124.619V34.2087H121.699V18.6301H124.619V25.3313H131.923V18.6301H134.843V34.2087Z" fill="#3A4959"/>
<path d="M145.99 28.1539V34.2087H143.092V28.1539L137.415 18.6301H139.968C140.219 18.6301 140.417 18.6912 140.56 18.8133C140.711 18.9354 140.837 19.0898 140.937 19.2765L143.792 24.4802C143.958 24.789 144.101 25.0835 144.223 25.3636C144.346 25.6365 144.457 25.9059 144.557 26.1716C144.651 25.8987 144.755 25.6258 144.87 25.3528C144.992 25.0727 145.136 24.7818 145.301 24.4802L148.134 19.2765C148.213 19.1185 148.332 18.9713 148.49 18.8348C148.648 18.6984 148.849 18.6301 149.093 18.6301H151.657L145.99 28.1539Z" fill="#3A4959"/>
<path d="M168.046 21.4633C167.967 21.6214 167.874 21.7327 167.766 21.7973C167.666 21.862 167.544 21.8943 167.4 21.8943C167.256 21.8943 167.095 21.8404 166.915 21.7327C166.736 21.6178 166.524 21.4921 166.279 21.3556C166.035 21.2191 165.748 21.097 165.418 20.9893C165.094 20.8744 164.71 20.8169 164.265 20.8169C163.863 20.8169 163.511 20.8672 163.209 20.9678C162.915 21.0611 162.663 21.194 162.455 21.3664C162.254 21.5388 162.103 21.747 162.002 21.9912C161.902 22.2283 161.852 22.4904 161.852 22.7777C161.852 23.144 161.952 23.4493 162.153 23.6935C162.361 23.9377 162.634 24.146 162.972 24.3183C163.31 24.4907 163.694 24.6451 164.125 24.7816C164.556 24.9181 164.994 25.0653 165.439 25.2233C165.892 25.3741 166.333 25.5537 166.764 25.762C167.195 25.9631 167.579 26.2217 167.917 26.5377C168.255 26.8465 168.524 27.2272 168.725 27.6797C168.933 28.1322 169.037 28.6816 169.037 29.328C169.037 30.0319 168.915 30.6927 168.671 31.3104C168.434 31.9209 168.082 32.456 167.615 32.9156C167.156 33.3681 166.592 33.7272 165.924 33.993C165.256 34.2515 164.491 34.3808 163.629 34.3808C163.134 34.3808 162.645 34.3306 162.164 34.23C161.683 34.1366 161.219 34.0002 160.774 33.8206C160.336 33.641 159.923 33.4256 159.535 33.1742C159.155 32.9228 158.813 32.6427 158.512 32.3339L159.352 30.9441C159.431 30.8435 159.524 30.7609 159.632 30.6963C159.747 30.6244 159.873 30.5885 160.009 30.5885C160.189 30.5885 160.383 30.664 160.591 30.8148C160.799 30.9584 161.044 31.12 161.324 31.2996C161.611 31.4792 161.945 31.6443 162.326 31.7952C162.713 31.9388 163.177 32.0106 163.715 32.0106C164.541 32.0106 165.181 31.8167 165.633 31.4289C166.086 31.0338 166.312 30.47 166.312 29.7374C166.312 29.328 166.208 28.9941 165.999 28.7355C165.798 28.4769 165.529 28.2615 165.191 28.0891C164.854 27.9095 164.469 27.7587 164.039 27.6366C163.608 27.5145 163.169 27.3816 162.724 27.238C162.279 27.0943 161.841 26.9219 161.41 26.7208C160.979 26.5197 160.595 26.2576 160.257 25.9344C159.919 25.6112 159.647 25.2089 159.438 24.7277C159.237 24.2393 159.137 23.6396 159.137 22.9285C159.137 22.3611 159.248 21.8081 159.471 21.2694C159.7 20.7307 160.031 20.2531 160.462 19.8365C160.9 19.42 161.435 19.086 162.067 18.8346C162.699 18.5832 163.421 18.4575 164.232 18.4575C165.152 18.4575 165.999 18.6012 166.775 18.8885C167.551 19.1758 168.212 19.578 168.757 20.0951L168.046 21.4633Z" fill="#5C7795"/>
<path d="M175.321 28.7247V34.2085H172.423V18.6299H177.498C178.539 18.6299 179.44 18.752 180.202 18.9962C180.963 19.2404 181.592 19.5816 182.087 20.0197C182.583 20.4578 182.949 20.9821 183.186 21.5926C183.423 22.2031 183.542 22.8711 183.542 23.5965C183.542 24.3507 183.416 25.0438 183.164 25.6758C182.913 26.3007 182.536 26.8393 182.033 27.2918C181.53 27.7443 180.902 28.0963 180.148 28.3476C179.394 28.599 178.51 28.7247 177.498 28.7247H175.321ZM175.321 26.4623H177.498C178.029 26.4623 178.492 26.3976 178.887 26.2683C179.282 26.1319 179.609 25.9415 179.868 25.6973C180.126 25.446 180.32 25.1443 180.45 24.7924C180.579 24.4332 180.643 24.0346 180.643 23.5965C180.643 23.1799 180.579 22.8029 180.45 22.4653C180.32 22.1277 180.126 21.8404 179.868 21.6034C179.609 21.3664 179.282 21.1868 178.887 21.0647C178.492 20.9354 178.029 20.8708 177.498 20.8708H175.321V26.4623Z" fill="#5C7795"/>
<path d="M190.135 34.2085H187.226V18.6299H190.135V34.2085Z" fill="#5C7795"/>
<path d="M196.243 18.6299C196.372 18.6299 196.48 18.6371 196.566 18.6514C196.652 18.6586 196.727 18.6802 196.792 18.7161C196.864 18.7448 196.932 18.7915 196.997 18.8561C197.061 18.9136 197.133 18.9926 197.212 19.0932L205.389 29.5112C205.361 29.2598 205.339 29.0156 205.325 28.7786C205.317 28.5344 205.314 28.3081 205.314 28.0998V18.6299H207.867V34.2085H206.37C206.14 34.2085 205.95 34.1725 205.799 34.1007C205.648 34.0289 205.501 33.8996 205.357 33.7129L197.212 23.3379C197.234 23.5678 197.248 23.7976 197.255 24.0274C197.27 24.2501 197.277 24.4548 197.277 24.6415V34.2085H194.723V18.6299H196.243Z" fill="#5C7795"/>
<path d="M221.913 18.6299V20.9354H215.007V25.2556H220.448V27.4858H215.007V31.8921H221.913V34.2085H212.087V18.6299H221.913Z" fill="#5C7795"/>
<path d="M56.565 44.9752V45.5934H51.1472V49.9203H55.8378V50.5384H51.1472V55.2653H50.3982V44.9752H56.565Z" fill="#999999"/>
<path d="M66.5009 55.2653H65.9264C65.8585 55.2653 65.8028 55.2484 65.7591 55.2144C65.7155 55.1756 65.6816 55.1272 65.6573 55.069L64.4429 52.0801H59.3887L58.1816 55.069C58.1622 55.1223 58.1282 55.1684 58.0797 55.2072C58.0313 55.2459 57.9731 55.2653 57.9052 55.2653H57.338L61.5486 44.9752H62.2903L66.5009 55.2653ZM59.6142 51.5274H64.2247L62.1231 46.3279C62.0891 46.2454 62.0552 46.1533 62.0212 46.0515C61.9873 45.9449 61.9534 45.8334 61.9194 45.717C61.8855 45.8334 61.8516 45.9449 61.8176 46.0515C61.7837 46.1533 61.7498 46.2479 61.7158 46.3351L59.6142 51.5274Z" fill="#999999"/>
<path d="M73.948 52.2692C74.0207 52.405 74.0838 52.5504 74.1371 52.7055C74.1662 52.628 74.1953 52.5528 74.2244 52.4801C74.2583 52.4025 74.2947 52.3298 74.3334 52.2619L78.3768 45.1134C78.4155 45.0504 78.4543 45.0116 78.4931 44.9971C78.5319 44.9825 78.5852 44.9752 78.6531 44.9752H79.1694V55.2653H78.5149V46.4951C78.5149 46.3691 78.5222 46.2357 78.5367 46.0952L74.4862 53.2873C74.4183 53.4134 74.3213 53.4764 74.1953 53.4764H74.0789C73.9577 53.4764 73.8608 53.4134 73.788 53.2873L69.6284 46.0879C69.6429 46.2285 69.6502 46.3642 69.6502 46.4951V55.2653H69.003V44.9752H69.512C69.5799 44.9752 69.6332 44.9825 69.672 44.9971C69.7156 45.0116 69.7568 45.0504 69.7956 45.1134L73.948 52.2692Z" fill="#999999"/>
<path d="M84.1171 55.2653H83.3681V44.9752H84.1171V55.2653Z" fill="#999999"/>
<path d="M89.0597 54.6327H93.9393V55.2653H88.3179V44.9752H89.0597V54.6327Z" fill="#999999"/>
<path d="M98.4198 51.0184V55.2653H97.6708V51.0184L93.8675 44.9752H94.5147C94.5826 44.9752 94.6359 44.9922 94.6747 45.0261C94.7183 45.0552 94.7595 45.0989 94.7983 45.157L97.7435 49.8839C97.8114 49.9954 97.8696 50.1045 97.918 50.2112C97.9665 50.313 98.0102 50.4172 98.0489 50.5239C98.0877 50.4172 98.1314 50.313 98.1798 50.2112C98.2283 50.1045 98.2865 49.9954 98.3544 49.8839L101.292 45.157C101.321 45.1037 101.358 45.0601 101.401 45.0261C101.445 44.9922 101.501 44.9752 101.569 44.9752H102.223L98.4198 51.0184Z" fill="#999999"/>
<path d="M115.967 53.5346C116.016 53.5346 116.057 53.5515 116.091 53.5855L116.382 53.8982C116.168 54.126 115.936 54.3321 115.683 54.5163C115.431 54.6957 115.155 54.8508 114.854 54.9817C114.559 55.1078 114.231 55.2047 113.873 55.2726C113.519 55.3453 113.128 55.3817 112.702 55.3817C111.989 55.3817 111.335 55.2581 110.738 55.0108C110.147 54.7587 109.638 54.4048 109.211 53.9491C108.789 53.4885 108.46 52.9334 108.222 52.2838C107.985 51.6341 107.866 50.9117 107.866 50.1166C107.866 49.3361 107.987 48.6234 108.229 47.9786C108.477 47.3338 108.821 46.7812 109.262 46.3206C109.708 45.8552 110.239 45.4964 110.855 45.2443C111.475 44.9874 112.159 44.8589 112.905 44.8589C113.279 44.8589 113.621 44.888 113.931 44.9462C114.241 44.9995 114.53 45.0795 114.796 45.1861C115.068 45.2879 115.322 45.4164 115.56 45.5716C115.797 45.7267 116.03 45.9061 116.258 46.1097L116.033 46.4369C115.994 46.4951 115.933 46.5242 115.851 46.5242C115.807 46.5242 115.751 46.5 115.683 46.4515C115.616 46.3982 115.528 46.3351 115.422 46.2624C115.32 46.1848 115.194 46.1024 115.043 46.0152C114.898 45.923 114.724 45.8406 114.52 45.7679C114.316 45.6903 114.081 45.6273 113.815 45.5788C113.548 45.5255 113.245 45.4988 112.905 45.4988C112.28 45.4988 111.706 45.6079 111.182 45.8261C110.658 46.0394 110.208 46.3473 109.829 46.7496C109.451 47.1472 109.155 47.632 108.942 48.2041C108.734 48.7713 108.629 49.4088 108.629 50.1166C108.629 50.8439 108.734 51.4935 108.942 52.0656C109.151 52.6377 109.439 53.1225 109.808 53.52C110.176 53.9127 110.61 54.2157 111.109 54.429C111.613 54.6375 112.159 54.7417 112.745 54.7417C113.114 54.7417 113.441 54.7175 113.727 54.669C114.018 54.6205 114.285 54.5478 114.527 54.4509C114.77 54.3539 114.995 54.2351 115.203 54.0945C115.412 53.9539 115.618 53.7891 115.822 53.6C115.846 53.5806 115.868 53.5661 115.887 53.5564C115.911 53.5418 115.938 53.5346 115.967 53.5346Z" fill="#999999"/>
<path d="M127.532 55.2653H126.783V50.3348H120.339V55.2653H119.59V44.9752H120.339V49.7749H126.783V44.9752H127.532V55.2653Z" fill="#999999"/>
<path d="M132.475 55.2653H131.726V44.9752H132.475V55.2653Z" fill="#999999"/>
<path d="M137.635 50.6112V55.2653H136.894V44.9752H139.519C140.707 44.9752 141.594 45.2055 142.18 45.6661C142.767 46.1218 143.06 46.7933 143.06 47.6805C143.06 48.0732 142.992 48.4319 142.857 48.7568C142.721 49.0816 142.525 49.3676 142.268 49.6149C142.016 49.8573 141.71 50.0585 141.351 50.2185C140.993 50.3736 140.588 50.4754 140.137 50.5239C140.253 50.5966 140.358 50.6936 140.45 50.8148L143.991 55.2653H143.344C143.266 55.2653 143.199 55.2508 143.14 55.2217C143.087 55.1926 143.034 55.1441 142.98 55.0763L139.686 50.902C139.604 50.7954 139.514 50.7202 139.417 50.6766C139.325 50.633 139.179 50.6112 138.981 50.6112H137.635ZM137.635 50.0585H139.424C139.88 50.0585 140.287 50.0051 140.646 49.8985C141.01 49.787 141.315 49.6294 141.562 49.4258C141.814 49.2222 142.006 48.9773 142.137 48.6913C142.268 48.4053 142.333 48.0829 142.333 47.7241C142.333 46.992 142.093 46.4491 141.613 46.0952C141.133 45.7412 140.435 45.5643 139.519 45.5643H137.635V50.0585Z" fill="#999999"/>
<path d="M155.588 50.1166C155.588 50.9117 155.47 51.6341 155.232 52.2838C154.995 52.9285 154.66 53.4812 154.229 53.9418C153.797 54.3975 153.281 54.7514 152.68 55.0035C152.078 55.2508 151.412 55.3744 150.68 55.3744C149.957 55.3744 149.296 55.2508 148.694 55.0035C148.093 54.7514 147.577 54.3975 147.145 53.9418C146.714 53.4812 146.377 52.9285 146.135 52.2838C145.897 51.6341 145.778 50.9117 145.778 50.1166C145.778 49.3264 145.897 48.6089 146.135 47.9641C146.377 47.3144 146.714 46.7618 147.145 46.306C147.577 45.8455 148.093 45.4891 148.694 45.237C149.296 44.9849 149.957 44.8589 150.68 44.8589C151.412 44.8589 152.078 44.9849 152.68 45.237C153.281 45.4843 153.797 45.8382 154.229 46.2988C154.66 46.7593 154.995 47.3144 155.232 47.9641C155.47 48.6089 155.588 49.3264 155.588 50.1166ZM154.818 50.1166C154.818 49.3991 154.718 48.7543 154.519 48.1823C154.321 47.6102 154.039 47.1254 153.676 46.7278C153.317 46.3303 152.883 46.0273 152.374 45.8188C151.865 45.6055 151.3 45.4988 150.68 45.4988C150.069 45.4988 149.509 45.6055 149 45.8188C148.496 46.0273 148.059 46.3303 147.691 46.7278C147.327 47.1254 147.044 47.6102 146.84 48.1823C146.641 48.7543 146.542 49.3991 146.542 50.1166C146.542 50.839 146.641 51.4862 146.84 52.0583C147.044 52.6255 147.327 53.1079 147.691 53.5055C148.059 53.903 148.496 54.206 149 54.4145C149.509 54.623 150.069 54.7272 150.68 54.7272C151.3 54.7272 151.865 54.623 152.374 54.4145C152.883 54.206 153.317 53.903 153.676 53.5055C154.039 53.1079 154.321 52.6255 154.519 52.0583C154.718 51.4862 154.818 50.839 154.818 50.1166Z" fill="#999999"/>
<path d="M159.848 51.1202V55.2653H159.106V44.9752H161.76C162.968 44.9752 163.877 45.2395 164.487 45.7679C165.103 46.2963 165.411 47.0502 165.411 48.0295C165.411 48.4804 165.326 48.8949 165.156 49.2731C164.992 49.6512 164.752 49.9785 164.436 50.2548C164.121 50.5263 163.738 50.7396 163.287 50.8948C162.837 51.0451 162.328 51.1202 161.76 51.1202H159.848ZM159.848 50.5239H161.76C162.216 50.5239 162.623 50.4609 162.982 50.3348C163.341 50.2088 163.644 50.0342 163.891 49.8112C164.143 49.5882 164.335 49.3264 164.466 49.0258C164.601 48.7204 164.669 48.3883 164.669 48.0295C164.669 47.2393 164.424 46.6309 163.935 46.2042C163.45 45.7776 162.725 45.5643 161.76 45.5643H159.848V50.5239Z" fill="#999999"/>
<path d="M169.356 50.6112V55.2653H168.614V44.9752H171.24C172.427 44.9752 173.315 45.2055 173.901 45.6661C174.488 46.1218 174.781 46.7933 174.781 47.6805C174.781 48.0732 174.713 48.4319 174.577 48.7568C174.442 49.0816 174.245 49.3676 173.988 49.6149C173.736 49.8573 173.431 50.0585 173.072 50.2185C172.713 50.3736 172.309 50.4754 171.858 50.5239C171.974 50.5966 172.078 50.6936 172.17 50.8148L175.712 55.2653H175.065C174.987 55.2653 174.919 55.2508 174.861 55.2217C174.808 55.1926 174.754 55.1441 174.701 55.0763L171.407 50.902C171.324 50.7954 171.235 50.7202 171.138 50.6766C171.046 50.633 170.9 50.6112 170.701 50.6112H169.356ZM169.356 50.0585H171.145C171.601 50.0585 172.008 50.0051 172.367 49.8985C172.73 49.787 173.036 49.6294 173.283 49.4258C173.535 49.2222 173.727 48.9773 173.858 48.6913C173.988 48.4053 174.054 48.0829 174.054 47.7241C174.054 46.992 173.814 46.4491 173.334 46.0952C172.854 45.7412 172.156 45.5643 171.24 45.5643H169.356V50.0585Z" fill="#999999"/>
<path d="M186.189 55.2653H185.615C185.547 55.2653 185.491 55.2484 185.447 55.2144C185.404 55.1756 185.37 55.1272 185.346 55.069L184.131 52.0801H179.077L177.87 55.069C177.85 55.1223 177.816 55.1684 177.768 55.2072C177.719 55.2459 177.661 55.2653 177.593 55.2653H177.026L181.237 44.9752H181.978L186.189 55.2653ZM179.302 51.5274H183.913L181.811 46.3279C181.777 46.2454 181.743 46.1533 181.709 46.0515C181.675 45.9449 181.642 45.8334 181.608 45.717C181.574 45.8334 181.54 45.9449 181.506 46.0515C181.472 46.1533 181.438 46.2479 181.404 46.3351L179.302 51.5274Z" fill="#999999"/>
<path d="M195.954 53.5346C196.002 53.5346 196.044 53.5515 196.077 53.5855L196.368 53.8982C196.155 54.126 195.922 54.3321 195.67 54.5163C195.418 54.6957 195.142 54.8508 194.841 54.9817C194.545 55.1078 194.218 55.2047 193.859 55.2726C193.506 55.3453 193.115 55.3817 192.689 55.3817C191.976 55.3817 191.322 55.2581 190.725 55.0108C190.134 54.7587 189.625 54.4048 189.198 53.9491C188.776 53.4885 188.447 52.9334 188.209 52.2838C187.971 51.6341 187.853 50.9117 187.853 50.1166C187.853 49.3361 187.974 48.6234 188.216 47.9786C188.464 47.3338 188.808 46.7812 189.249 46.3206C189.695 45.8552 190.226 45.4964 190.842 45.2443C191.462 44.9874 192.146 44.8589 192.892 44.8589C193.266 44.8589 193.607 44.888 193.918 44.9462C194.228 44.9995 194.516 45.0795 194.783 45.1861C195.055 45.2879 195.309 45.4164 195.547 45.5716C195.784 45.7267 196.017 45.9061 196.245 46.1097L196.019 46.4369C195.981 46.4951 195.92 46.5242 195.838 46.5242C195.794 46.5242 195.738 46.5 195.67 46.4515C195.602 46.3982 195.515 46.3351 195.408 46.2624C195.307 46.1848 195.181 46.1024 195.03 46.0152C194.885 45.923 194.71 45.8406 194.507 45.7679C194.303 45.6903 194.068 45.6273 193.801 45.5788C193.535 45.5255 193.232 45.4988 192.892 45.4988C192.267 45.4988 191.692 45.6079 191.169 45.8261C190.645 46.0394 190.194 46.3473 189.816 46.7496C189.438 47.1472 189.142 47.632 188.929 48.2041C188.721 48.7713 188.616 49.4088 188.616 50.1166C188.616 50.8439 188.721 51.4935 188.929 52.0656C189.137 52.6377 189.426 53.1225 189.794 53.52C190.163 53.9127 190.597 54.2157 191.096 54.429C191.6 54.6375 192.146 54.7417 192.732 54.7417C193.101 54.7417 193.428 54.7175 193.714 54.669C194.005 54.6205 194.272 54.5478 194.514 54.4509C194.756 54.3539 194.982 54.2351 195.19 54.0945C195.399 53.9539 195.605 53.7891 195.808 53.6C195.833 53.5806 195.854 53.5661 195.874 53.5564C195.898 53.5418 195.925 53.5346 195.954 53.5346Z" fill="#999999"/>
<path d="M206.297 44.9752V45.6079H202.682V55.2653H201.941V45.6079H198.305V44.9752H206.297Z" fill="#999999"/>
<path d="M209.976 55.2653H209.227V44.9752H209.976V55.2653Z" fill="#999999"/>
<path d="M221.652 53.5346C221.701 53.5346 221.742 53.5515 221.776 53.5855L222.067 53.8982C221.854 54.126 221.621 54.3321 221.369 54.5163C221.117 54.6957 220.84 54.8508 220.54 54.9817C220.244 55.1078 219.917 55.2047 219.558 55.2726C219.204 55.3453 218.814 55.3817 218.387 55.3817C217.675 55.3817 217.02 55.2581 216.424 55.0108C215.832 54.7587 215.323 54.4048 214.897 53.9491C214.475 53.4885 214.145 52.9334 213.908 52.2838C213.67 51.6341 213.551 50.9117 213.551 50.1166C213.551 49.3361 213.672 48.6234 213.915 47.9786C214.162 47.3338 214.506 46.7812 214.947 46.3206C215.393 45.8552 215.924 45.4964 216.54 45.2443C217.161 44.9874 217.844 44.8589 218.591 44.8589C218.964 44.8589 219.306 44.888 219.616 44.9462C219.926 44.9995 220.215 45.0795 220.482 45.1861C220.753 45.2879 221.008 45.4164 221.245 45.5716C221.483 45.7267 221.715 45.9061 221.943 46.1097L221.718 46.4369C221.679 46.4951 221.618 46.5242 221.536 46.5242C221.492 46.5242 221.437 46.5 221.369 46.4515C221.301 46.3982 221.214 46.3351 221.107 46.2624C221.005 46.1848 220.879 46.1024 220.729 46.0152C220.583 45.923 220.409 45.8406 220.205 45.7679C220.002 45.6903 219.766 45.6273 219.5 45.5788C219.233 45.5255 218.93 45.4988 218.591 45.4988C217.965 45.4988 217.391 45.6079 216.867 45.8261C216.344 46.0394 215.893 46.3473 215.515 46.7496C215.137 47.1472 214.841 47.632 214.627 48.2041C214.419 48.7713 214.315 49.4088 214.315 50.1166C214.315 50.8439 214.419 51.4935 214.627 52.0656C214.836 52.6377 215.124 53.1225 215.493 53.52C215.861 53.9127 216.295 54.2157 216.795 54.429C217.299 54.6375 217.844 54.7417 218.431 54.7417C218.799 54.7417 219.127 54.7175 219.413 54.669C219.703 54.6205 219.97 54.5478 220.212 54.4509C220.455 54.3539 220.68 54.2351 220.889 54.0945C221.097 53.9539 221.303 53.7891 221.507 53.6C221.531 53.5806 221.553 53.5661 221.572 53.5564C221.597 53.5418 221.623 53.5346 221.652 53.5346Z" fill="#999999"/>
<path d="M28.7836 42.888C28.7836 42.888 30.0796 44.7256 31.1304 47.6296C32.0944 46.3001 32.0243 43.9726 31.9543 42.8012C31.8842 41.6298 31.2733 38.7244 30.3879 36.975C29.3066 34.7943 27.8098 32.8452 25.9815 31.2369C23.6697 29.1558 20.6055 27.0733 19.5897 26.3218C18.5739 25.5702 15.9987 23.6977 14.6509 21.9832C13.3031 20.2688 12.8645 19.7258 11.8838 17.2416C10.903 14.7575 11.3051 11.2068 11.5335 10.174C11.7619 9.14114 12.7945 6.24691 14.4926 4.85578C16.052 3.5794 17.6983 2.52976 20.5705 2.51156C23.4427 2.49337 25.8133 3.33309 28.048 4.80399C29.8246 5.9726 30.612 6.58 31.0085 6.92008C31.3476 7.20979 31.7791 7.70802 32.1644 7.74301C32.5497 7.778 32.7249 7.37493 32.4264 6.8683C32.128 6.36167 30.7283 5.03072 28.8018 3.80613C26.8753 2.58154 25.1058 1.70683 22.2336 1.18201C19.3613 0.657185 15.7718 1.32196 13.7052 2.47657C11.6386 3.63119 9.67707 5.11889 8.27599 7.53308C6.8749 9.94727 6.59469 12.6582 6.54145 14.1109C6.48821 15.5636 6.7348 19.201 7.99577 21.965C8.57301 20.4256 8.52117 20.5305 8.66128 20.1988C8.80139 19.8671 9.08161 19.7608 9.39685 20.1289C9.71209 20.4969 10.0792 20.8104 10.0091 21.3003C9.93907 21.7901 9.48372 23.1896 9.48372 23.1896C9.48372 23.1896 10.7979 24.9922 10.938 25.2539C11.0781 25.5156 11.095 25.7969 10.7629 26.3568L11.5853 27.2133C11.5853 27.2133 11.9356 25.0272 11.9889 24.7473C12.0421 24.4674 12.2691 24.0126 12.7763 24.4492C13.2835 24.8859 13.6001 25.0972 13.5469 25.8487C13.4936 26.6003 13.425 27.4582 13.425 27.4582C13.425 27.4582 15.088 28.8927 15.2982 29.1376C15.5084 29.3825 15.5784 29.7324 15.1931 30.3804L15.9987 31.132C16.1038 30.819 16.1803 30.4972 16.2271 30.1705C16.2621 29.7856 16.2271 28.736 16.2972 28.4029C16.3672 28.0698 16.6124 27.8613 17.1546 28.2461C17.7431 28.666 17.9785 28.9809 17.9434 29.8724C17.9028 30.922 17.9084 30.922 17.9084 30.922C17.9084 30.922 19.5547 32.2166 19.8167 32.4265C20.0787 32.6365 20.4472 32.8464 20.2903 33.2662C20.1932 33.5207 20.0371 33.7485 19.8349 33.931L20.9376 34.7707C20.9376 34.7707 21.0258 32.9863 21.0258 32.6546C21.0258 32.1998 21.1827 31.6918 22.0234 32.2516C22.7001 32.7022 22.6721 33.2662 22.6721 33.9842C22.6721 34.7022 22.6539 35.0157 22.6539 35.0157C22.6539 35.0157 24.2133 36.1703 24.4753 36.3452C24.7373 36.5202 25.0357 36.8001 25.0007 37.115C24.9657 37.4298 24.5453 37.9029 24.5453 37.9029L25.7363 38.8994C25.7363 38.8994 25.9997 37.3599 26.0697 37.0282C26.1398 36.6965 26.455 36.4684 26.8922 36.8532C27.3293 37.2381 27.681 37.448 27.5577 38.2696C27.4344 39.0911 27.2606 39.8622 27.2606 39.8622C27.2606 39.8622 28.0663 40.6488 28.4684 41.0868C28.8705 41.5249 29.2222 41.7866 29.2039 42.1365C29.193 42.2848 29.1498 42.4289 29.0771 42.5588C29.0045 42.6886 28.9043 42.801 28.7836 42.888Z" fill="#37495B"/>
<path d="M4.57995 24.4841C4.57995 24.4841 3.58238 22.6997 2.46152 20.0938C1.58584 21.1434 1.46255 23.7493 1.55082 24.9389C1.63908 26.1285 2.11125 28.5959 3.38903 31.1318C4.66682 33.6678 6.4546 35.3836 7.15514 36.0484C7.85568 36.7132 9.71212 38.3044 10.8148 39.1092C11.9174 39.9139 14.0204 41.4534 14.686 41.9432C15.745 42.7144 16.7457 43.5625 17.6801 44.4806C18.7141 45.5302 19.87 46.7366 20.5523 47.9612C21.2346 49.1858 22.0234 50.6203 22.2168 52.9995C22.4101 55.3787 22.0767 57.3381 21.7614 58.3877C21.4462 59.4374 20.7106 61.135 19.5715 62.3596C18.4325 63.5842 17.4881 64.144 15.7886 64.7388C14.0891 65.3336 11.2883 65.1236 10.4477 64.9487C9.60704 64.7738 7.71558 64.144 6.41958 63.3742C5.12357 62.6045 3.26714 61.3967 2.68849 60.9251C2.10985 60.4534 1.58584 59.8222 1.23557 59.9272C0.885302 60.0322 0.902115 60.592 1.44573 61.2567C1.93191 61.8515 3.5992 63.2511 4.80833 63.9508C6.01746 64.6506 7.73239 65.6303 9.27358 66.0683C10.7897 66.4626 12.3488 66.668 13.9154 66.6799C14.9311 66.6631 17.6983 66.4 20.0269 65.1586C22.3555 63.9173 23.4946 62.7095 24.6336 61.2749C25.7727 59.8404 26.2351 58.5123 26.6204 56.9028C27.0057 55.2933 27.0323 53.4726 27.0323 51.8645C27.0323 50.0269 26.455 47.9976 26.2267 47.2978C25.9983 46.5981 25.5443 45.6016 25.5443 45.6016C25.5443 45.6016 25.0189 45.8465 24.5524 45.3119C24.2007 44.9088 22.9874 43.3889 22.9874 43.3889C22.9874 43.3889 21.4952 43.5135 21.201 43.4673C20.7106 43.3889 20.5004 43.0992 20.237 42.6976C19.9736 42.2959 19.7649 41.8229 20.7106 41.8047C21.6563 41.7865 22.3919 41.7697 22.9523 41.5598L22.2868 40.6683C22.2868 40.6683 22.0935 41.0531 21.7782 41.1049C21.463 41.1567 21.1477 41.0531 20.3772 40.3701C19.6066 39.6872 19.0994 39.2687 19.0994 39.2687C19.0994 39.2687 17.9603 39.5836 17.5582 39.6354C17.1561 39.6872 16.8156 39.5682 16.3673 39.1987C15.8587 38.7789 15.6667 38.2709 16.3673 38.1659C17.0678 38.0609 17.9953 37.851 18.6608 37.5361L17.7151 36.7146C17.7151 36.7146 17.4531 37.0994 17.1028 37.1512C16.7526 37.203 16.4541 37.1344 15.7368 36.4697C15.0194 35.8049 14.4576 35.385 14.4576 35.385C14.4576 35.385 13.2484 35.7447 12.8646 35.8049C12.3041 35.8917 12.0407 35.6467 11.6204 35.2801C11.2001 34.9134 11.0249 34.4571 11.7787 34.3172C12.4315 34.2095 13.0711 34.0336 13.687 33.7924L12.6894 32.9358C12.6894 32.9358 12.3265 33.3389 12.0589 33.3907C11.6036 33.4775 11.3584 33.3557 10.6396 32.5328C10.3272 32.159 9.9942 31.803 9.64206 31.4663C9.64206 31.4663 8.29282 31.6413 7.83747 31.6231C7.38212 31.6049 7.1019 31.4481 6.69979 30.9933C6.29768 30.5384 6.17439 30.0836 6.90995 29.9968C7.64552 29.9101 8.88828 29.7323 8.88828 29.7323L7.47039 28.4378C7.47039 28.4378 7.08509 28.7177 6.76985 28.7177C6.33131 28.7177 6.13936 28.4909 5.66579 27.668C5.19223 26.8451 4.7733 26.1285 4.7733 26.1285C4.7733 26.1285 3.10882 26.2335 2.84682 26.1117C2.58481 25.99 2.33822 25.5519 2.12806 25.167C1.9179 24.7822 2.00477 24.3763 2.70671 24.4141C3.43947 24.4533 4.57995 24.4841 4.57995 24.4841Z" fill="#557898"/>
<path d="M108.637 83.4763H105.98V93.2123H101.954V83.4763H100.039V80.0547H101.954V77.8406C101.954 76.2572 102.706 73.7778 106.016 73.7778L108.998 73.7903V77.1115H106.834C106.479 77.1115 105.98 77.2889 105.98 78.0442V80.0579H108.989L108.637 83.4763Z" fill="#056CDE"/>
<path d="M84.8517 78.6694C84.2135 78.9524 83.5269 79.1438 82.8069 79.2293C83.542 78.7888 84.1062 78.0919 84.3725 77.2602C83.6846 77.6682 82.9224 77.9642 82.1119 78.1238C81.4625 77.4322 80.5373 77 79.5127 77C77.5471 77 75.9528 78.5942 75.9528 80.5599C75.9528 80.8389 75.9844 81.1105 76.0455 81.3712C73.0869 81.2228 70.4636 79.8057 68.7077 77.6512C68.4013 78.1769 68.2256 78.7888 68.2256 79.4412C68.2256 80.6759 68.8545 81.766 69.8092 82.4042C69.2259 82.3859 68.6766 82.2258 68.1969 81.9585C68.1966 81.9736 68.1966 81.9888 68.1966 82.0036C68.1966 83.7285 69.4242 85.1672 71.0525 85.494C70.7541 85.5758 70.4389 85.619 70.1148 85.619C69.8849 85.619 69.6621 85.597 69.445 85.5556C69.8979 86.9696 71.2123 87.9988 72.7704 88.0278C71.5519 88.9827 70.0171 89.5517 68.3488 89.5517C68.062 89.5517 67.778 89.535 67.5 89.5018C69.0746 90.5122 70.9463 91.1013 72.9566 91.1013C79.5045 91.1013 83.0854 85.6769 83.0854 80.9722C83.0854 80.818 83.082 80.6642 83.0751 80.5119C83.7712 80.0101 84.3746 79.3833 84.8517 78.6694Z" fill="#056CDE"/>
<path fill-rule="evenodd" clip-rule="evenodd" d="M45 75C42.8273 75 42.5549 75.0092 41.7016 75.0481C40.8501 75.087 40.2686 75.2222 39.7597 75.42C39.2336 75.6244 38.7875 75.898 38.3427 76.3427C37.898 76.7875 37.6244 77.2336 37.42 77.7597C37.2222 78.2686 37.087 78.8501 37.0481 79.7016C37.0092 80.5549 37 80.8273 37 83C37 85.1727 37.0092 85.4451 37.0481 86.2984C37.087 87.1499 37.2222 87.7314 37.42 88.2403C37.6244 88.7664 37.898 89.2125 38.3427 89.6573C38.7875 90.102 39.2336 90.3756 39.7597 90.58C40.2686 90.7778 40.8501 90.913 41.7016 90.9519C42.5549 90.9908 42.8273 91 45 91C47.1727 91 47.4451 90.9908 48.2984 90.9519C49.1499 90.913 49.7314 90.7778 50.2403 90.58C50.7664 90.3756 51.2125 90.102 51.6573 89.6573C52.102 89.2125 52.3756 88.7664 52.58 88.2403C52.7778 87.7314 52.913 87.1499 52.9519 86.2984C52.9908 85.4451 53 85.1727 53 83C53 80.8273 52.9908 80.5549 52.9519 79.7016C52.913 78.8501 52.7778 78.2686 52.58 77.7597C52.3756 77.2336 52.102 76.7875 51.6573 76.3427C51.2125 75.898 50.7664 75.6244 50.2403 75.42C49.7314 75.2222 49.1499 75.087 48.2984 75.0481C47.4451 75.0092 47.1727 75 45 75ZM45 76.4414C47.1361 76.4414 47.3891 76.4496 48.2327 76.4881C49.0127 76.5237 49.4363 76.654 49.7182 76.7635C50.0916 76.9087 50.3581 77.082 50.638 77.362C50.918 77.6419 51.0913 77.9084 51.2365 78.2818C51.346 78.5637 51.4763 78.9873 51.5119 79.7673C51.5504 80.6109 51.5586 80.8639 51.5586 83C51.5586 85.1361 51.5504 85.3891 51.5119 86.2327C51.4763 87.0127 51.346 87.4363 51.2365 87.7182C51.0913 88.0916 50.918 88.3581 50.638 88.638C50.3581 88.918 50.0916 89.0913 49.7182 89.2365C49.4363 89.346 49.0127 89.4763 48.2327 89.5119C47.3892 89.5504 47.1363 89.5586 45 89.5586C42.8637 89.5586 42.6108 89.5504 41.7673 89.5119C40.9873 89.4763 40.5637 89.346 40.2818 89.2365C39.9084 89.0913 39.6419 88.918 39.362 88.638C39.0821 88.3581 38.9087 88.0916 38.7635 87.7182C38.654 87.4363 38.5237 87.0127 38.4881 86.2327C38.4496 85.3891 38.4414 85.1361 38.4414 83C38.4414 80.8639 38.4496 80.6109 38.4881 79.7673C38.5237 78.9873 38.654 78.5637 38.7635 78.2818C38.9087 77.9084 39.082 77.6419 39.362 77.362C39.6419 77.082 39.9084 76.9087 40.2818 76.7635C40.5637 76.654 40.9873 76.5237 41.7673 76.4881C42.6109 76.4496 42.8639 76.4414 45 76.4414ZM40.8919 83C40.8919 80.7311 42.7311 78.8919 45 78.8919C47.2689 78.8919 49.1081 80.7311 49.1081 83C49.1081 85.2689 47.2689 87.1081 45 87.1081C42.7311 87.1081 40.8919 85.2689 40.8919 83ZM45 85.6667C43.5272 85.6667 42.3333 84.4728 42.3333 83C42.3333 81.5272 43.5272 80.3333 45 80.3333C46.4728 80.3333 47.6667 81.5272 47.6667 83C47.6667 84.4728 46.4728 85.6667 45 85.6667ZM49.2704 79.6896C49.8006 79.6896 50.2304 79.2598 50.2304 78.7296C50.2304 78.1994 49.8006 77.7696 49.2704 77.7696C48.7402 77.7696 48.3104 78.1994 48.3104 78.7296C48.3104 79.2598 48.7402 79.6896 49.2704 79.6896Z" fill="#056CDE"/>
<path d="M16.0956 87.9439C14.9697 87.8568 14.4966 87.2985 13.6136 86.7625C13.1283 89.3088 12.5352 91.7497 10.7785 93.0248C10.2355 89.1763 11.5744 86.2857 12.1962 83.2174C11.1363 81.4334 12.3236 77.8424 14.559 78.7273C17.3102 79.8152 12.1771 85.361 15.6231 86.0536C19.2207 86.7768 20.6894 79.8112 18.4582 77.5456C15.2347 74.2745 9.0751 77.4712 9.83254 82.1539C10.0171 83.2987 11.2001 83.6462 10.3051 85.2258C8.24201 84.7689 7.62661 83.1418 7.70572 80.9725C7.83342 77.4216 10.8963 74.9353 13.9686 74.5912C17.854 74.1564 21.5007 76.018 22.004 79.6727C22.5703 83.7975 20.25 88.2646 16.0956 87.9439Z" fill="#056CDE"/>
<path d="M48.3047 198C47.5497 198 46.9375 198.612 46.9375 199.367V205.656C46.9375 206.411 47.5497 207.023 48.3047 207.023C49.0596 207.023 49.6719 206.411 49.6719 205.656V199.367C49.6719 198.612 49.0596 198 48.3047 198Z" fill="#FFCE51"/>
<path d="M16.8594 240.656C16.1047 240.656 15.4922 241.269 15.4922 242.023C15.4922 242.778 16.1047 243.391 16.8594 243.391C17.6141 243.391 18.2266 242.778 18.2266 242.023C18.2266 241.269 17.6141 240.656 16.8594 240.656Z" fill="#FFCE51"/>
<path d="M67.4453 237.922C67.4453 234.906 64.992 232.453 61.9766 232.453H51.7702C53.3503 228.406 53.9899 223.642 53.8665 219.401C53.843 218.592 53.812 218.124 53.77 217.83C53.6993 214.875 51.2737 212.492 48.3047 212.492C45.2892 212.492 42.8359 214.945 42.8359 217.961V219.328C42.8359 227.975 31.7325 232.833 23.353 234.917C22.7194 233.468 21.2732 232.453 19.5938 232.453H5.92188C5.16691 232.453 4.55469 233.065 4.55469 233.82V266.633C4.55469 267.388 5.16691 268 5.92188 268H19.5938C21.262 268 22.6999 266.998 23.34 265.565C24.0338 265.743 24.6779 265.911 25.2725 266.067C30.046 267.313 32.6755 268 39.0707 268H53.7734C56.7889 268 59.2422 265.547 59.2422 262.531C59.2422 261.407 58.9008 260.361 58.3166 259.491C60.4286 258.752 61.9766 256.734 61.9766 254.328C61.9766 253.208 61.6435 252.159 61.0611 251.284C63.1638 250.545 64.7109 248.531 64.7109 246.125C64.7109 245.001 64.3696 243.955 63.7854 243.085C65.8974 242.346 67.4453 240.328 67.4453 237.922ZM20.9609 263.898C20.9609 264.652 20.3476 265.266 19.5938 265.266H7.28906V235.188H19.5938C20.3476 235.188 20.9609 235.801 20.9609 236.555V263.898ZM61.9766 240.656C59.0441 240.656 58.345 240.656 55.1406 240.656C54.3857 240.656 53.7734 241.268 53.7734 242.023C53.7734 242.778 54.3857 243.391 55.1406 243.391H59.2422C60.7499 243.391 61.9766 244.617 61.9766 246.125C61.9766 247.635 60.7524 248.859 59.2422 248.859H52.4062C51.6513 248.859 51.0391 249.472 51.0391 250.227C51.0391 250.982 51.6513 251.594 52.4062 251.594H56.5078C57.9976 251.594 59.2422 252.784 59.2422 254.328C59.2422 255.838 58.018 257.062 56.5078 257.062C53.5753 257.062 52.8763 257.062 49.6719 257.062C48.9169 257.062 48.3047 257.675 48.3047 258.43C48.3047 259.185 48.9169 259.797 49.6719 259.797H53.7734C55.2812 259.797 56.5078 261.024 56.5078 262.531C56.5078 264.039 55.2812 265.266 53.7734 265.266H39.0707C33.0268 265.266 30.6662 264.649 25.9635 263.421C25.2745 263.241 24.5189 263.044 23.6953 262.834V237.652C33.5894 235.295 45.5703 229.543 45.5703 219.328V217.961C45.5703 216.453 46.797 215.227 48.3047 215.227C49.8097 215.227 51.0362 216.451 51.0391 217.957V217.961C51.0391 218.555 51.7806 225.847 48.807 232.453H44.2031C43.4482 232.453 42.8359 233.065 42.8359 233.82C42.8359 234.575 43.4482 235.188 44.2031 235.188C45.1578 235.188 60.4182 235.188 61.9766 235.188C63.4843 235.188 64.7109 236.414 64.7109 237.922C64.7109 239.432 63.4868 240.656 61.9766 240.656Z" fill="#FFCE51"/>
<path d="M16.8594 246.125C16.1044 246.125 15.4922 246.737 15.4922 247.492V258.43C15.4922 259.185 16.1044 259.797 16.8594 259.797C17.6143 259.797 18.2266 259.185 18.2266 258.43V247.492C18.2266 246.737 17.6143 246.125 16.8594 246.125Z" fill="#FFCE51"/>
<path d="M37.3672 215.227H31.8984C31.1435 215.227 30.5312 215.839 30.5312 216.594C30.5312 217.349 31.1435 217.961 31.8984 217.961H37.3672C38.1221 217.961 38.7344 217.349 38.7344 216.594C38.7344 215.839 38.1221 215.227 37.3672 215.227Z" fill="#FFCE51"/>
<path d="M64.7109 215.227H59.2422C58.4872 215.227 57.875 215.839 57.875 216.594C57.875 217.349 58.4872 217.961 59.2422 217.961H64.7109C65.4659 217.961 66.0781 217.349 66.0781 216.594C66.0781 215.839 65.4659 215.227 64.7109 215.227Z" fill="#FFCE51"/>
<path d="M60.8719 204.027C60.3379 203.493 59.4725 203.493 58.9383 204.027L55.072 207.893C54.5382 208.427 54.5382 209.292 55.072 209.826C55.6062 210.36 56.4715 210.36 57.0057 209.826L60.8719 205.96C61.4058 205.426 61.4058 204.561 60.8719 204.027Z" fill="#FFCE51"/>
<path d="M41.5373 207.893L37.6711 204.027C37.137 203.493 36.2716 203.493 35.7375 204.027C35.2036 204.56 35.2036 205.426 35.7375 205.96L39.6037 209.826C40.138 210.36 41.0033 210.36 41.5373 209.826C42.0712 209.293 42.0712 208.427 41.5373 207.893Z" fill="#FFCE51"/>
<path d="M123.807 251.629V245.419V222.839H92.1936V245.419V251.629V252.193C92.1936 260.91 99.2839 268 108 268C116.716 268 123.807 260.91 123.807 252.193V251.629ZM103.484 240.903C103.484 238.412 105.509 236.387 108 236.387C110.491 236.387 112.516 238.412 112.516 240.903C112.516 243.394 110.491 245.419 108 245.419C105.509 245.419 103.484 243.394 103.484 240.903ZM106.871 247.575V251.628C106.871 253.552 105.992 255.273 104.613 256.414V246.761C105.299 247.159 106.06 247.438 106.871 247.575ZM94.4517 225.097H106.871V234.231C104.041 234.708 101.806 236.944 101.327 239.774H94.4517V225.097ZM94.4517 245.419V242.032H96.7097V244.29H98.9678V242.032H101.327C101.488 242.983 101.841 243.867 102.355 244.64V257.598C101.815 257.751 101.25 257.839 100.661 257.839C100.073 257.839 99.5075 257.751 98.9678 257.598V246.548H96.7097V256.415C95.3312 255.275 94.4517 253.553 94.4517 251.629V245.419ZM108 265.742C102.93 265.742 98.5072 262.938 96.1847 258.804C97.4854 259.618 99.0163 260.097 100.661 260.097C103.799 260.097 106.537 258.377 108 255.836C109.463 258.377 112.201 260.097 115.339 260.097C116.984 260.097 118.515 259.618 119.815 258.804C117.493 262.938 113.071 265.742 108 265.742ZM121.548 245.419V251.629C121.548 255.052 118.762 257.839 115.339 257.839C111.916 257.839 109.129 255.052 109.129 251.629V247.576C111.96 247.098 114.194 244.863 114.673 242.032H121.548V245.419ZM121.548 239.774H114.673C114.195 236.944 111.96 234.709 109.129 234.231V225.097H121.548V239.774Z" fill="#FFCE51"/>
<path d="M111.387 240.903C111.387 239.036 109.867 237.516 108 237.516C106.133 237.516 104.613 239.036 104.613 240.903C104.613 242.771 106.133 244.29 108 244.29C109.867 244.29 111.387 242.771 111.387 240.903ZM106.871 240.903C106.871 240.28 107.377 239.774 108 239.774C108.623 239.774 109.129 240.28 109.129 240.903C109.129 241.526 108.623 242.032 108 242.032C107.377 242.032 106.871 241.526 106.871 240.903Z" fill="#FFCE51"/>
<path d="M112.516 249.936H114.774V255.581H117.032V249.936H119.29V247.677H117.032V245.419H114.774V247.677H112.516V249.936Z" fill="#FFCE51"/>
<path d="M104.613 227.355H96.7097V234.129H104.613V227.355ZM102.355 231.871H98.9678V229.613H102.355V231.871Z" fill="#FFCE51"/>
<path d="M115.903 236.387C118.394 236.387 120.419 234.362 120.419 231.871C120.419 229.38 118.394 227.355 115.903 227.355C113.413 227.355 111.387 229.38 111.387 231.871C111.387 234.362 113.413 236.387 115.903 236.387ZM115.903 229.613C117.149 229.613 118.161 230.626 118.161 231.871C118.161 233.116 117.149 234.129 115.903 234.129C114.658 234.129 113.645 233.116 113.645 231.871C113.645 230.626 114.658 229.613 115.903 229.613Z" fill="#FFCE51"/>
<path d="M95.3131 214.232L95.5807 214.41V214.935V220.581H120.419V214.935V214.41L120.688 214.232C122.393 213.095 123.496 211.292 123.75 209.29H126.065V207.032H123.656C123.514 206.314 123.265 205.632 122.916 205.003L124.605 203.314L123.008 201.718L121.509 203.217C121.043 202.796 120.518 202.431 119.935 202.14C119.363 201.853 118.767 201.648 118.161 201.501V199.129H115.903V201.264C114.528 201.316 113.167 201.712 111.94 202.447L110.93 203.054C111.213 202.56 111.387 201.996 111.387 201.387C111.387 199.52 109.867 198 108 198C106.133 198 104.613 199.52 104.613 201.387C104.613 201.996 104.787 202.56 105.069 203.054L104.06 202.447C103.17 201.915 102.21 201.565 101.226 201.39V199.129H98.9678V201.305C97.9743 201.404 96.9909 201.677 96.0651 202.14C95.9781 202.183 95.9025 202.24 95.8178 202.286L94.1209 200.589L92.5244 202.185L94.0305 203.691C93.1759 204.625 92.5922 205.773 92.3438 207.032H89.9355V209.29H92.2501C92.5041 211.292 93.6072 213.095 95.3131 214.232ZM113.103 204.384C114.887 203.312 117.067 203.23 118.926 204.16C120.542 204.97 121.548 206.595 121.548 208.405C121.548 209.619 121.086 210.765 120.279 211.632C119.836 209.56 118.266 207.87 116.143 207.34C115.247 207.116 114.301 207.116 113.406 207.34L111.387 207.845V205.903C111.387 205.745 111.361 205.594 111.341 205.441L113.103 204.384ZM108 200.258C108.623 200.258 109.129 200.764 109.129 201.387C109.129 202.01 108.623 202.516 108 202.516C107.377 202.516 106.871 202.01 106.871 201.387C106.871 200.764 107.377 200.258 108 200.258ZM106.871 205.903C106.871 205.28 107.377 204.774 108 204.774C108.623 204.774 109.129 205.28 109.129 205.903V212.677C109.129 213.301 108.623 213.806 108 213.806C107.377 213.806 106.871 213.301 106.871 212.677V205.903ZM113.645 216.065V213.806H111.179C111.306 213.452 111.387 213.075 111.387 212.677V210.171L113.952 209.53C114.491 209.398 115.058 209.398 115.595 209.53C117.106 209.908 118.161 211.259 118.161 212.816V213.806H115.903V216.065H118.161V218.323H97.8388V216.065H113.645ZM97.8388 213.806V212.816C97.8388 211.259 98.8944 209.908 100.404 209.53C100.942 209.398 101.509 209.398 102.047 209.53L104.613 210.171V212.677C104.613 213.075 104.694 213.452 104.821 213.806H97.8388ZM97.0744 204.16C98.9351 203.227 101.113 203.313 102.897 204.384L104.659 205.441C104.639 205.594 104.613 205.745 104.613 205.903V207.845L102.594 207.34C101.699 207.116 100.752 207.116 99.8564 207.34C97.7326 207.871 96.1644 209.56 95.7207 211.632C94.9146 210.764 94.4517 209.619 94.4517 208.405C94.4517 206.595 95.4576 204.97 97.0744 204.16Z" fill="#FFCE51"/>
<path d="M140.742 261.226V256.71H138.484V256.185L139.49 255.514C140.981 254.52 141.871 252.857 141.871 251.064C141.871 249.272 140.981 247.608 139.49 246.615L138.484 245.944V242.637L139.49 241.967C140.981 240.972 141.871 239.309 141.871 237.516C141.871 235.723 140.981 234.06 139.49 233.067L138.484 232.396V227.147C139.795 226.68 140.742 225.438 140.742 223.968C140.742 223.097 140.402 222.31 139.861 221.71C140.403 221.109 140.742 220.322 140.742 219.452C140.742 217.947 139.748 216.682 138.388 216.243C137.933 213.583 135.625 211.548 132.839 211.548C130.052 211.548 127.745 213.583 127.29 216.243C125.929 216.682 124.936 217.947 124.936 219.452C124.936 220.322 125.275 221.109 125.816 221.71C125.274 222.31 124.936 223.097 124.936 223.968C124.936 225.438 125.883 226.68 127.194 227.147V229.48L126.063 228.914L126.067 233.458C126.067 234.581 126.491 235.623 127.194 236.423V243.028L126.063 242.462L126.067 247.007C126.067 248.129 126.491 249.171 127.194 249.972V256.71H124.936V261.226H122.677V268H143V261.226H140.742ZM139.613 251.064C139.613 252.1 139.098 253.062 138.237 253.635L137.73 253.974C136.047 251.412 133.334 249.671 130.257 249.232C129.156 249.075 128.326 248.119 128.325 247.004L128.324 246.11C130.532 247.137 132.97 247.677 135.403 247.677H137.013L138.237 248.494C139.098 249.067 139.613 250.029 139.613 251.064ZM136.226 255.88V256.71H129.452V251.351C129.615 251.394 129.776 251.445 129.946 251.469C132.627 251.851 134.951 253.496 136.226 255.88ZM129.452 244.119V237.803C129.615 237.846 129.776 237.897 129.946 237.92C132.627 238.303 134.951 239.948 136.226 242.331V245.419H135.403C133.358 245.419 131.318 244.958 129.452 244.119ZM139.613 237.516C139.613 238.551 139.098 239.513 138.237 240.087L137.73 240.426C136.047 237.864 133.334 236.123 130.257 235.684C129.156 235.527 128.326 234.57 128.325 233.456L128.324 232.562C130.532 233.588 132.97 234.129 135.403 234.129H137.013L138.237 234.945C139.098 235.519 139.613 236.481 139.613 237.516ZM129.452 230.57V227.355H136.226V231.871H135.403C133.358 231.871 131.318 231.409 129.452 230.57ZM132.839 213.806C134.309 213.806 135.551 214.754 136.018 216.064H129.661C130.127 214.754 131.369 213.806 132.839 213.806ZM128.323 218.323H137.355C137.978 218.323 138.484 218.828 138.484 219.452C138.484 220.075 137.978 220.581 137.355 220.581H128.323C127.699 220.581 127.194 220.075 127.194 219.452C127.194 218.828 127.699 218.323 128.323 218.323ZM128.323 222.839H137.355C137.978 222.839 138.484 223.344 138.484 223.968C138.484 224.591 137.978 225.097 137.355 225.097H128.323C127.699 225.097 127.194 224.591 127.194 223.968C127.194 223.344 127.699 222.839 128.323 222.839ZM140.742 265.742H124.936V263.484H129.452V261.226H127.194V258.968H138.484V261.226H131.71V263.484H140.742V265.742Z" fill="#FFCE51"/>
<path d="M91.0645 256.71H88.8065V249.973C89.5087 249.173 89.9332 248.13 89.9332 247.008L89.9366 242.464L88.8065 243.028V236.424C89.5087 235.625 89.9332 234.582 89.9332 233.459L89.9366 228.915L88.8065 229.48V227.147C90.1173 226.68 91.0645 225.438 91.0645 223.968C91.0645 223.097 90.7247 222.31 90.1839 221.71C90.7258 221.109 91.0645 220.322 91.0645 219.452C91.0645 217.947 90.071 216.682 88.7105 216.243C88.2555 213.583 85.9477 211.548 83.1613 211.548C80.3748 211.548 78.0671 213.583 77.6121 216.243C76.2516 216.682 75.2581 217.947 75.2581 219.452C75.2581 220.322 75.5979 221.109 76.1387 221.71C75.5979 222.31 75.2581 223.097 75.2581 223.968C75.2581 225.438 76.2053 226.68 77.5161 227.147V232.396L76.5102 233.067C75.0187 234.06 74.129 235.723 74.129 237.516C74.129 239.309 75.0187 240.972 76.5102 241.966L77.5161 242.636V245.944L76.5102 246.615C75.0187 247.608 74.129 249.272 74.129 251.064C74.129 252.857 75.0187 254.52 76.5102 255.514L77.5161 256.185V256.71H75.2581V261.226H73V268H93.3226V261.226H91.0645V256.71ZM83.1613 213.806C84.6313 213.806 85.8732 214.754 86.3406 216.064H79.9819C80.4494 214.754 81.6913 213.806 83.1613 213.806ZM78.6452 218.323H87.6774C88.3006 218.323 88.8065 218.828 88.8065 219.452C88.8065 220.075 88.3006 220.581 87.6774 220.581H78.6452C78.0219 220.581 77.5161 220.075 77.5161 219.452C77.5161 218.828 78.0219 218.323 78.6452 218.323ZM78.6452 222.839H87.6774C88.3006 222.839 88.8065 223.344 88.8065 223.968C88.8065 224.591 88.3006 225.097 87.6774 225.097H78.6452C78.0219 225.097 77.5161 224.591 77.5161 223.968C77.5161 223.344 78.0219 222.839 78.6452 222.839ZM86.5484 227.355V230.57C84.6821 231.409 82.6419 231.871 80.5973 231.871H79.7742V227.355H86.5484ZM76.3871 237.516C76.3871 236.481 76.9019 235.519 77.7634 234.945L78.9873 234.129H80.5973C83.0303 234.129 85.4668 233.588 87.6774 232.562L87.6763 233.456C87.6752 234.569 86.8453 235.527 85.7355 235.685C82.6656 236.124 79.9548 237.865 78.2715 240.424L77.7645 240.087C76.9019 239.513 76.3871 238.551 76.3871 237.516ZM86.5484 237.804V244.119C84.6821 244.958 82.6419 245.419 80.5973 245.419H79.7742V242.333C81.0489 239.95 83.3736 238.304 86.0595 237.92C86.2277 237.897 86.3858 237.846 86.5484 237.804ZM76.3871 251.064C76.3871 250.029 76.9019 249.067 77.7634 248.494L78.9873 247.677H80.5973C83.0303 247.677 85.4668 247.137 87.6774 246.11L87.6763 247.004C87.6752 248.118 86.8453 249.075 85.7355 249.233C82.6656 249.672 79.9548 251.413 78.2715 253.973L77.7645 253.635C76.9019 253.062 76.3871 252.1 76.3871 251.064ZM86.5484 251.352V256.71H79.7742V255.881C81.0489 253.499 83.3736 251.853 86.0595 251.469C86.2277 251.445 86.3858 251.394 86.5484 251.352ZM77.5161 258.968H88.8065V261.226H77.5161V258.968ZM91.0645 265.742H75.2581V263.484H91.0645V265.742Z" fill="#FFCE51"/>
<g clip-path="url(#clip0)">
<path d="M180 206.066C177.522 206.066 175.115 206.572 172.847 207.569C172.156 207.873 171.842 208.679 172.146 209.371C172.449 210.062 173.256 210.376 173.947 210.072C175.867 209.229 177.903 208.801 180 208.801C188.292 208.801 195.039 215.547 195.039 223.839C195.039 232.132 188.292 238.878 180 238.878C171.707 238.878 164.961 232.132 164.961 223.839C164.961 221.203 165.657 218.603 166.975 216.32C167.353 215.666 167.129 214.83 166.475 214.453C165.821 214.075 164.985 214.299 164.607 214.953C163.049 217.651 162.226 220.724 162.226 223.839C162.226 233.64 170.199 241.613 180 241.613C189.8 241.613 197.773 233.64 197.773 223.839C197.773 214.039 189.8 206.066 180 206.066Z" fill="#FFCE51"/>
<path d="M205.623 222.922L201.292 218.135L202.649 211.822C202.796 211.136 202.4 210.449 201.731 210.234L195.586 208.253L193.605 202.108C193.39 201.439 192.703 201.043 192.017 201.191L185.705 202.548L180.917 198.216C180.396 197.745 179.603 197.746 179.082 198.216L174.294 202.548L167.982 201.191C167.296 201.042 166.609 201.439 166.394 202.108L164.413 208.253L158.268 210.234C157.599 210.449 157.203 211.136 157.35 211.822L158.707 218.135L154.376 222.922C153.905 223.444 153.905 224.236 154.376 224.757L158.707 229.545L157.35 235.857C157.203 236.544 157.599 237.23 158.268 237.446L164.413 239.426L164.465 239.587L158.259 262.746C158.114 263.288 158.315 263.865 158.767 264.199C159.219 264.533 159.829 264.556 160.305 264.258L167.225 259.923L171.05 267.137C171.288 267.587 171.755 267.863 172.257 267.863C172.308 267.863 172.36 267.86 172.411 267.855C172.969 267.791 173.432 267.393 173.578 266.85L178.402 248.847L179.082 249.463C179.343 249.699 179.671 249.817 180 249.817C180.328 249.817 180.656 249.699 180.917 249.463L181.597 248.847L186.421 266.85C186.567 267.393 187.03 267.791 187.588 267.854C187.64 267.86 187.691 267.863 187.742 267.863C188.244 267.863 188.711 267.587 188.95 267.137L192.774 259.922L199.694 264.257C200.17 264.556 200.78 264.533 201.232 264.199C201.684 263.865 201.886 263.288 201.74 262.745L200.015 256.307C199.82 255.578 199.07 255.145 198.34 255.341C197.611 255.536 197.178 256.286 197.374 257.015L198.199 260.094L192.981 256.824C192.659 256.623 192.268 256.564 191.901 256.663C191.534 256.761 191.225 257.007 191.047 257.343L188.162 262.783L183.875 246.786L185.704 245.131L192.017 246.488C192.703 246.637 193.39 246.239 193.605 245.571L193.988 244.382L194.933 247.908C195.097 248.518 195.649 248.921 196.253 248.921C196.37 248.921 196.489 248.906 196.608 248.874C197.337 248.679 197.77 247.929 197.575 247.2L195.534 239.586L195.586 239.426L201.731 237.446C202.399 237.23 202.796 236.543 202.648 235.857L201.291 229.545L205.622 224.756C206.094 224.236 206.094 223.443 205.623 222.922ZM171.837 262.783L168.952 257.343C168.774 257.008 168.465 256.761 168.098 256.663C167.731 256.564 167.34 256.623 167.018 256.825L161.8 260.094L166.01 244.382L166.394 245.571C166.609 246.24 167.296 246.637 167.982 246.489L174.294 245.132L176.123 246.786L171.837 262.783ZM198.794 228.23C198.499 228.556 198.379 229.005 198.471 229.435L199.716 235.223L194.081 237.039C193.662 237.174 193.334 237.502 193.199 237.921L191.383 243.556L185.595 242.311C185.164 242.218 184.716 242.339 184.39 242.634L180 246.606L175.609 242.634C175.355 242.404 175.028 242.28 174.692 242.28C174.596 242.28 174.5 242.291 174.404 242.311L168.616 243.556L166.8 237.921C166.665 237.502 166.337 237.174 165.918 237.039L160.284 235.223L161.528 229.435C161.621 229.004 161.501 228.556 161.205 228.23L157.234 223.84L161.205 219.449C161.501 219.123 161.621 218.675 161.528 218.245L160.284 212.456L165.918 210.64C166.337 210.506 166.665 210.177 166.8 209.758L168.616 204.124L174.404 205.368C174.834 205.461 175.283 205.341 175.609 205.046L180 201.074L184.39 205.045C184.716 205.341 185.164 205.461 185.595 205.368L191.383 204.124L193.199 209.758C193.334 210.177 193.662 210.506 194.081 210.64L199.716 212.456L198.471 218.245C198.379 218.675 198.499 219.123 198.794 219.449L202.766 223.84L198.794 228.23Z" fill="#FFCE51"/>
<path d="M196.94 250.023C196.208 250.206 195.762 250.95 195.946 251.682C196.101 252.304 196.659 252.718 197.271 252.718C197.381 252.718 197.492 252.705 197.604 252.677C198.336 252.494 198.781 251.751 198.598 251.019L198.598 251.016C198.415 250.284 197.673 249.839 196.94 250.023Z" fill="#FFCE51"/>
<path d="M173.409 226.763L173.039 231.091C172.976 231.842 173.305 232.556 173.917 233C174.29 233.271 174.727 233.41 175.17 233.41C175.45 233.41 175.734 233.354 176.004 233.24L179.999 231.551L183.913 233.206C184.625 233.53 185.42 233.466 186.046 233.032C186.675 232.595 187.026 231.851 186.962 231.087L186.589 226.763L189.398 223.523C189.911 222.947 190.082 222.172 189.854 221.446C189.628 220.724 189.028 220.169 188.292 219.999L184.073 219.019L181.845 215.322C181.46 214.669 180.777 214.275 180.016 214.27C180.01 214.27 180.003 214.27 179.997 214.27C179.24 214.27 178.556 214.656 178.164 215.305L175.926 219.019L171.712 219.998C170.973 220.167 170.391 220.699 170.154 221.423C169.919 222.143 170.074 222.914 170.57 223.488L173.409 226.763ZM177.108 221.551C177.468 221.468 177.778 221.242 177.969 220.925L179.999 217.558L182.03 220.925C182.22 221.242 182.531 221.468 182.891 221.551L186.717 222.441L184.145 225.408C183.903 225.688 183.784 226.053 183.816 226.421L184.153 230.338L180.532 228.807C180.362 228.735 180.181 228.699 179.999 228.699C179.818 228.699 179.637 228.735 179.467 228.807L175.848 230.337L176.183 226.42C176.214 226.052 176.096 225.687 175.854 225.408L173.282 222.441L177.108 221.551Z" fill="#FFCE51"/>
<path d="M168.248 213.758C168.602 213.758 168.956 213.622 169.224 213.349L169.241 213.332C169.769 212.792 169.761 211.927 169.221 211.398C168.683 210.87 167.817 210.878 167.288 211.417L167.271 211.434C166.743 211.974 166.751 212.839 167.29 213.367C167.557 213.629 167.902 213.758 168.248 213.758Z" fill="#FFCE51"/>
</g>
<path d="M230.125 226.164C229.37 226.164 228.758 226.777 228.758 227.531C228.758 228.286 229.37 228.898 230.125 228.898C230.88 228.898 231.492 228.286 231.492 227.531C231.492 226.777 230.88 226.164 230.125 226.164Z" fill="#FFCE51"/>
<path d="M279.344 209.758C264.445 209.758 256.439 201.797 253.808 199.181C253.272 198.648 253.003 198.381 252.72 198.205C252.279 197.932 251.721 197.932 251.28 198.205C251.085 198.326 250.928 198.479 250.549 198.85C249.575 199.801 247.294 202.03 243.767 204.236C237.906 207.9 231.476 209.758 224.656 209.758C223.901 209.758 223.289 210.37 223.289 211.125V229.061C223.289 237.672 226.005 245.874 231.145 252.782C236.718 260.271 243.985 265.655 251.607 267.942C251.735 267.981 251.868 268 252 268C252.132 268 252.265 267.981 252.393 267.942C260.015 265.655 267.282 260.271 272.855 252.782C277.995 245.874 280.711 237.672 280.711 229.061V211.125C280.711 210.37 280.099 209.758 279.344 209.758ZM277.977 229.061C277.977 237.079 275.447 244.717 270.662 251.149C265.534 258.04 258.921 263.016 252 265.202C245.079 263.016 238.466 258.04 233.338 251.15C228.553 244.717 226.023 237.079 226.023 229.061V212.469C232.856 212.236 239.306 210.249 245.216 206.554C248.523 204.486 250.796 202.411 252.007 201.245C254.874 204.093 263.052 212.011 277.977 212.471V229.061Z" fill="#FFCE51"/>
<path d="M274.026 214.938C266.5 214.105 259.361 211.06 252.806 205.887C252.315 205.5 251.624 205.495 251.128 205.875C244.635 210.844 237.118 214.053 229.962 214.911C229.275 214.993 228.758 215.576 228.758 216.268V222.062C228.758 222.818 229.37 223.43 230.125 223.43C230.88 223.43 231.492 222.818 231.492 222.062V217.462C236.694 216.67 244.079 214.466 251.947 208.679C258.327 213.514 265.234 216.477 272.508 217.503V229.061C272.508 235.894 270.352 242.402 266.273 247.882C262.366 253.137 257.439 256.977 252 259.016C246.561 256.978 241.635 253.138 237.728 247.885C234.437 243.462 232.357 238.258 231.714 232.834C231.625 232.084 230.945 231.547 230.195 231.637C229.445 231.726 228.909 232.406 228.998 233.156C229.698 239.054 231.958 244.712 235.534 249.517C239.874 255.353 245.41 259.586 251.543 261.76C251.691 261.812 251.846 261.838 252 261.838C252.154 261.838 252.309 261.812 252.457 261.76C258.59 259.586 264.127 255.352 268.467 249.514C272.899 243.559 275.242 236.486 275.242 229.061V216.297C275.242 215.6 274.718 215.015 274.026 214.938Z" fill="#FFCE51"/>
<path d="M265.572 227.97C265.411 227.475 264.983 227.114 264.468 227.04L256.662 225.906L253.173 218.833C252.942 218.366 252.467 218.07 251.947 218.07C251.426 218.07 250.951 218.366 250.721 218.832L247.23 225.906L239.424 227.04C238.909 227.114 238.481 227.475 238.32 227.97C238.159 228.465 238.293 229.008 238.666 229.372L244.314 234.877L242.981 242.652C242.893 243.165 243.104 243.684 243.525 243.989C243.763 244.163 244.046 244.251 244.329 244.251C244.547 244.251 244.765 244.199 244.965 244.094L251.947 240.422L258.927 244.093C259.388 244.336 259.946 244.295 260.367 243.989C260.788 243.684 260.999 243.165 260.911 242.652L259.578 234.877L265.226 229.371C265.599 229.009 265.733 228.465 265.572 227.97ZM257.154 233.421C256.832 233.735 256.685 234.188 256.761 234.631L257.747 240.384L252.583 237.668C252.184 237.458 251.708 237.458 251.31 237.668L246.144 240.384L247.131 234.631C247.207 234.188 247.06 233.735 246.737 233.421L242.558 229.348L248.334 228.509C248.779 228.444 249.164 228.164 249.363 227.761L251.946 222.527L254.528 227.761C254.727 228.164 255.112 228.444 255.557 228.509L261.333 229.348L257.154 233.421Z" fill="#FFCE51"/>
<path d="M130.055 70.7174C130.367 69.8218 131.633 69.8218 131.945 70.7174L133.358 74.783C133.495 75.1781 133.864 75.446 134.282 75.4545L138.585 75.5422C139.533 75.5615 139.925 76.7661 139.169 77.3389L135.739 79.9393C135.406 80.192 135.265 80.6254 135.386 81.0257L136.633 85.1456C136.907 86.0531 135.882 86.7975 135.104 86.256L131.571 83.7975C131.228 83.5586 130.772 83.5586 130.429 83.7975L126.896 86.256C126.118 86.7975 125.093 86.0531 125.367 85.1456L126.614 81.0257C126.735 80.6254 126.594 80.192 126.261 79.9393L122.831 77.3389C122.075 76.7661 122.467 75.5615 123.415 75.5422L127.718 75.4545C128.136 75.446 128.505 75.1781 128.642 74.783L130.055 70.7174Z" fill="#056CDE"/>
<path opacity="0.4" d="M30.6074 99C39.0913 99 46.1036 101.687 51.6442 107.062C57.1847 112.436 59.955 119.458 59.955 128.126C59.955 132.113 59.4356 136.101 58.3967 140.088C57.3579 144.076 55.107 150.057 51.6442 158.032L35.0225 196H4.11656L16.3231 153.611C11.4751 151.357 7.66599 148.063 4.89571 143.729C2.29857 139.222 1 134.021 1 128.126C1 119.458 3.77028 112.436 9.31084 107.062C14.8514 101.687 21.9502 99 30.6074 99ZM98.6523 99C107.136 99 114.149 101.687 119.689 107.062C125.23 112.436 128 119.458 128 128.126C128 132.113 127.481 136.101 126.442 140.088C125.403 144.076 123.152 150.057 119.689 158.032L103.067 196H72.1615L84.3681 153.611C79.5201 151.357 75.711 148.063 72.9407 143.729C70.3436 139.222 69.045 134.021 69.045 128.126C69.045 119.458 71.8153 112.436 77.3558 107.062C82.8964 101.687 89.9952 99 98.6523 99Z" fill="#D5E9FF"/>
<path d="M61.1876 274.927L122.657 328.354C126.825 331.977 133.032 331.948 137.166 328.286L197.41 274.927" stroke="#056CDE" stroke-width="5"/>
<path d="M61.1876 370.669L108.094 316.051" stroke="#056CDE" stroke-width="5"/>
<path d="M197.41 371.311L150.503 316.694" stroke="#056CDE" stroke-width="5"/>
<path d="M133.797 290.992H82.3921" stroke="#056CDE" stroke-width="5" stroke-linecap="round" stroke-linejoin="round"/>
<path d="M153.074 290.992H146.648" stroke="#056CDE" stroke-width="5" stroke-linecap="round" stroke-linejoin="round"/>
<path d="M23.2767 305.128H16.8511" stroke="#056CDE" stroke-width="5" stroke-linecap="round" stroke-linejoin="round"/>
<path d="M59.2599 305.128H36.1278" stroke="#056CDE" stroke-width="5" stroke-linecap="round" stroke-linejoin="round"/>
<path d="M39.9832 334.686H16.8511" stroke="#056CDE" stroke-width="5" stroke-linecap="round" stroke-linejoin="round"/>
<path d="M59.26 320.549H4" stroke="#056CDE" stroke-width="5" stroke-linecap="round" stroke-linejoin="round"/>
<path d="M120.303 305.128H97.8134" stroke="#056CDE" stroke-width="5" stroke-linecap="round" stroke-linejoin="round"/>
<rect x="59.2599" y="273" width="140.078" height="98.9539" rx="4" stroke="#056CDE" stroke-width="5"/>
<path d="M180.703 352.677H142.15" stroke="#056CDE" stroke-width="5" stroke-linecap="round" stroke-linejoin="round"/>
<path d="M151 99C139.972 99 131 107.972 131 119C131 122.311 131.828 125.593 133.401 128.504L149.906 158.355C150.126 158.753 150.545 159 151 159C151.455 159 151.874 158.753 152.094 158.355L168.605 128.495C170.172 125.593 171 122.31 171 119C171 107.972 162.028 99 151 99ZM151 129C145.486 129 141 124.514 141 119C141 113.486 145.486 109 151 109C156.514 109 161 113.486 161 119C161 124.514 156.514 129 151 129Z" fill="#056CDE"/>
<ellipse cx="151" cy="118.973" rx="10.3542" ry="10.1291" fill="#FFCE51"/>
<path d="M170 79L170.707 79.7071C170.895 79.5196 171 79.2652 171 79C171 78.7348 170.895 78.4804 170.707 78.2929L170 79ZM144 78C143.448 78 143 78.4477 143 79C143 79.5523 143.448 80 144 80L144 78ZM162.707 87.7071L170.707 79.7071L169.293 78.2929L161.293 86.2929L162.707 87.7071ZM170.707 78.2929L162.707 70.2929L161.293 71.7071L169.293 79.7071L170.707 78.2929ZM170 78L144 78L144 80L170 80L170 78Z" fill="#056CDE"/>
<path d="M174 79L173.293 78.2929C172.902 78.6834 172.902 79.3166 173.293 79.7071L174 79ZM200 80C200.552 80 201 79.5523 201 79C201 78.4477 200.552 78 200 78V80ZM181.293 70.2929L173.293 78.2929L174.707 79.7071L182.707 71.7071L181.293 70.2929ZM173.293 79.7071L181.293 87.7071L182.707 86.2929L174.707 78.2929L173.293 79.7071ZM174 80H200V78H174V80Z" fill="#056CDE" fill-opacity="0.5"/>
<path d="M219 75L211.5 81L204 75" stroke="#056CDE" stroke-width="2" stroke-linecap="round" stroke-linejoin="round"/>
<path d="M223 80L230.5 74L238 80" stroke="#056CDE" stroke-width="2" stroke-linecap="round" stroke-linejoin="round"/>
<path d="M34.7891 377C34.2498 377 33.8125 377.437 33.8125 377.977V382.469C33.8125 383.008 34.2498 383.445 34.7891 383.445C35.3283 383.445 35.7656 383.008 35.7656 382.469V377.977C35.7656 377.437 35.3283 377 34.7891 377Z" fill="#FFCE51"/>
<path d="M12.3281 407.469C11.7891 407.469 11.3516 407.906 11.3516 408.445C11.3516 408.984 11.7891 409.422 12.3281 409.422C12.8672 409.422 13.3047 408.984 13.3047 408.445C13.3047 407.906 12.8672 407.469 12.3281 407.469Z" fill="#FFCE51"/>
<path d="M48.4609 405.516C48.4609 403.362 46.7086 401.609 44.5547 401.609H37.2645C38.3931 398.718 38.8499 395.316 38.7618 392.287C38.745 391.709 38.7229 391.374 38.6929 391.164C38.6424 389.054 36.9098 387.352 34.7891 387.352C32.6352 387.352 30.8828 389.104 30.8828 391.258V392.234C30.8828 398.411 22.9518 401.881 16.9664 403.369C16.5139 402.334 15.4809 401.609 14.2813 401.609H4.51563C3.97637 401.609 3.53906 402.047 3.53906 402.586V426.023C3.53906 426.563 3.97637 427 4.51563 427H14.2813C15.4729 427 16.4999 426.284 16.9571 425.261C17.4527 425.388 17.9128 425.508 18.3375 425.619C21.7472 426.51 23.6254 427 28.1934 427H38.6953C40.8492 427 42.6016 425.248 42.6016 423.094C42.6016 422.291 42.3577 421.544 41.9404 420.922C43.449 420.394 44.5547 418.953 44.5547 417.234C44.5547 416.434 44.3168 415.685 43.9008 415.06C45.4027 414.532 46.5078 413.094 46.5078 411.375C46.5078 410.572 46.264 409.825 45.8467 409.203C47.3553 408.676 48.4609 407.234 48.4609 405.516ZM15.2578 424.07C15.2578 424.609 14.8197 425.047 14.2813 425.047H5.49219V403.562H14.2813C14.8197 403.562 15.2578 404.001 15.2578 404.539V424.07ZM44.5547 407.469C42.4601 407.469 41.9607 407.469 39.6719 407.469C39.1326 407.469 38.6953 407.906 38.6953 408.445C38.6953 408.985 39.1326 409.422 39.6719 409.422H42.6016C43.6785 409.422 44.5547 410.298 44.5547 411.375C44.5547 412.454 43.6803 413.328 42.6016 413.328H37.7188C37.1795 413.328 36.7422 413.765 36.7422 414.305C36.7422 414.844 37.1795 415.281 37.7188 415.281H40.6484C41.7126 415.281 42.6016 416.131 42.6016 417.234C42.6016 418.313 41.7271 419.188 40.6484 419.188C38.5538 419.188 38.0545 419.188 35.7656 419.188C35.2264 419.188 34.7891 419.625 34.7891 420.164C34.7891 420.703 35.2264 421.141 35.7656 421.141H38.6953C39.7723 421.141 40.6484 422.017 40.6484 423.094C40.6484 424.171 39.7723 425.047 38.6953 425.047H28.1934C23.8763 425.047 22.1901 424.607 18.8311 423.729C18.339 423.601 17.7992 423.46 17.2109 423.31V405.323C24.2781 403.639 32.8359 399.53 32.8359 392.234V391.258C32.8359 390.181 33.7121 389.305 34.7891 389.305C35.8641 389.305 36.7401 390.179 36.7422 391.255V391.258C36.7422 391.682 37.2719 396.891 35.1479 401.609H31.8594C31.3201 401.609 30.8828 402.047 30.8828 402.586C30.8828 403.125 31.3201 403.562 31.8594 403.562C32.5413 403.562 43.4416 403.562 44.5547 403.562C45.6316 403.562 46.5078 404.439 46.5078 405.516C46.5078 406.594 45.6334 407.469 44.5547 407.469Z" fill="#FFCE51"/>
<path d="M12.3281 411.375C11.7889 411.375 11.3516 411.812 11.3516 412.352V420.164C11.3516 420.703 11.7889 421.141 12.3281 421.141C12.8674 421.141 13.3047 420.703 13.3047 420.164V412.352C13.3047 411.812 12.8674 411.375 12.3281 411.375Z" fill="#FFCE51"/>
<path d="M26.9766 389.305H23.0703C22.5311 389.305 22.0938 389.742 22.0938 390.281C22.0938 390.821 22.5311 391.258 23.0703 391.258H26.9766C27.5158 391.258 27.9531 390.821 27.9531 390.281C27.9531 389.742 27.5158 389.305 26.9766 389.305Z" fill="#FFCE51"/>
<path d="M46.5078 389.305H42.6016C42.0623 389.305 41.625 389.742 41.625 390.281C41.625 390.821 42.0623 391.258 42.6016 391.258H46.5078C47.0471 391.258 47.4844 390.821 47.4844 390.281C47.4844 389.742 47.0471 389.305 46.5078 389.305Z" fill="#FFCE51"/>
<path d="M43.7657 381.304C43.3843 380.923 42.7661 380.923 42.3846 381.304L39.6229 384.066C39.2416 384.447 39.2416 385.066 39.6229 385.447C40.0045 385.829 40.6225 385.829 41.0041 385.447L43.7657 382.686C44.1471 382.304 44.1471 381.686 43.7657 381.304Z" fill="#FFCE51"/>
<path d="M29.9553 384.066L27.1937 381.304C26.8122 380.923 26.194 380.923 25.8125 381.304C25.4312 381.686 25.4312 382.304 25.8125 382.686L28.5741 385.447C28.9558 385.829 29.5738 385.829 29.9553 385.447C30.3366 385.066 30.3366 384.448 29.9553 384.066Z" fill="#FFCE51"/>
<path d="M89.2904 415.306V410.871V394.742H66.7097V410.871V415.306V415.71C66.7097 421.935 71.7742 427 78 427C84.2258 427 89.2904 421.935 89.2904 415.71V415.306ZM74.7742 407.645C74.7742 405.866 76.221 404.419 78 404.419C79.7791 404.419 81.2258 405.866 81.2258 407.645C81.2258 409.424 79.7791 410.871 78 410.871C76.221 410.871 74.7742 409.424 74.7742 407.645ZM77.1936 412.41V415.306C77.1936 416.68 76.5654 417.91 75.5807 418.724V411.829C76.071 412.114 76.6146 412.313 77.1936 412.41ZM68.3226 396.355H77.1936V402.879C75.1718 403.22 73.5758 404.817 73.2339 406.839H68.3226V396.355ZM68.3226 410.871V408.452H69.9355V410.065H71.5484V408.452H73.2339C73.3484 409.131 73.6008 409.762 73.9678 410.315V419.57C73.5823 419.679 73.1783 419.742 72.7581 419.742C72.3379 419.742 71.9339 419.679 71.5484 419.57V411.677H69.9355V418.725C68.9508 417.91 68.3226 416.681 68.3226 415.306V410.871ZM78 425.387C74.3783 425.387 71.2194 423.385 69.5605 420.431C70.4896 421.013 71.5831 421.355 72.7581 421.355C74.9992 421.355 76.9549 420.127 78 418.311C79.0452 420.127 81.0008 421.355 83.242 421.355C84.417 421.355 85.5105 421.013 86.4396 420.431C84.7807 423.385 81.6218 425.387 78 425.387ZM87.6775 410.871V415.306C87.6775 417.752 85.6871 419.742 83.242 419.742C80.7968 419.742 78.8065 417.752 78.8065 415.306V412.411C80.8283 412.07 82.4242 410.473 82.7662 408.452H87.6775V410.871ZM87.6775 406.839H82.7662C82.425 404.817 80.8283 403.221 78.8065 402.879V396.355H87.6775V406.839Z" fill="#FFCE51"/>
<path d="M80.4194 407.645C80.4194 406.311 79.3339 405.226 78 405.226C76.6662 405.226 75.5807 406.311 75.5807 407.645C75.5807 408.979 76.6662 410.065 78 410.065C79.3339 410.065 80.4194 408.979 80.4194 407.645ZM77.1936 407.645C77.1936 407.2 77.5549 406.839 78 406.839C78.4452 406.839 78.8065 407.2 78.8065 407.645C78.8065 408.09 78.4452 408.452 78 408.452C77.5549 408.452 77.1936 408.09 77.1936 407.645Z" fill="#FFCE51"/>
<path d="M81.2258 414.097H82.8387V418.129H84.4516V414.097H86.0645V412.484H84.4516V410.871H82.8387V412.484H81.2258V414.097Z" fill="#FFCE51"/>
<path d="M75.5806 397.968H69.9354V402.806H75.5806V397.968ZM73.9677 401.194H71.5483V399.581H73.9677V401.194Z" fill="#FFCE51"/>
<path d="M83.6451 404.419C85.4241 404.419 86.8709 402.973 86.8709 401.194C86.8709 399.415 85.4241 397.968 83.6451 397.968C81.8661 397.968 80.4193 399.415 80.4193 401.194C80.4193 402.973 81.8661 404.419 83.6451 404.419ZM83.6451 399.581C84.5346 399.581 85.258 400.304 85.258 401.194C85.258 402.083 84.5346 402.806 83.6451 402.806C82.7556 402.806 82.0322 402.083 82.0322 401.194C82.0322 400.304 82.7556 399.581 83.6451 399.581Z" fill="#FFCE51"/>
<path d="M68.9379 388.594L69.1291 388.722V389.097V393.129H86.871V389.097V388.722L87.0629 388.594C88.2807 387.782 89.0686 386.494 89.25 385.065H90.9033V383.452H89.1831C89.0815 382.939 88.9033 382.452 88.6541 382.002L89.8605 380.796L88.7202 379.656L87.6492 380.727C87.3162 380.426 86.9412 380.165 86.525 379.957C86.1162 379.752 85.6904 379.606 85.2581 379.501V377.806H83.6452V379.331C82.6629 379.369 81.6904 379.652 80.8145 380.177L80.0928 380.61C80.2952 380.257 80.4194 379.854 80.4194 379.419C80.4194 378.085 79.3339 377 78 377C76.6662 377 75.5807 378.085 75.5807 379.419C75.5807 379.854 75.7049 380.257 75.9065 380.61L75.1855 380.177C74.55 379.797 73.8645 379.547 73.1613 379.422V377.806H71.5484V379.36C70.8387 379.431 70.1363 379.627 69.475 379.957C69.4129 379.988 69.3589 380.028 69.2984 380.061L68.0863 378.849L66.946 379.99L68.0218 381.065C67.4113 381.732 66.9944 382.552 66.817 383.452H65.0968V385.065H66.75C66.9315 386.494 67.7194 387.782 68.9379 388.594ZM81.6452 381.56C82.9194 380.794 84.4766 380.735 85.8041 381.4C86.9589 381.978 87.6774 383.14 87.6774 384.432C87.6774 385.299 87.3468 386.118 86.771 386.737C86.4541 385.257 85.3331 384.05 83.8162 383.672C83.1766 383.511 82.5008 383.511 81.8613 383.672L80.4194 384.032V382.645C80.4194 382.532 80.4008 382.424 80.3863 382.315L81.6452 381.56ZM78 378.613C78.4452 378.613 78.8065 378.974 78.8065 379.419C78.8065 379.865 78.4452 380.226 78 380.226C77.5549 380.226 77.1936 379.865 77.1936 379.419C77.1936 378.974 77.5549 378.613 78 378.613ZM77.1936 382.645C77.1936 382.2 77.5549 381.839 78 381.839C78.4452 381.839 78.8065 382.2 78.8065 382.645V387.484C78.8065 387.929 78.4452 388.29 78 388.29C77.5549 388.29 77.1936 387.929 77.1936 387.484V382.645ZM82.0323 389.903V388.29H80.271C80.3613 388.037 80.4194 387.768 80.4194 387.484V385.694L82.2516 385.235C82.6363 385.141 83.0412 385.141 83.425 385.235C84.5041 385.506 85.2581 386.471 85.2581 387.583V388.29H83.6452V389.903H85.2581V391.516H70.742V389.903H82.0323ZM70.742 388.29V387.583C70.742 386.471 71.496 385.506 72.5742 385.235C72.9589 385.141 73.3637 385.141 73.7476 385.235L75.5807 385.694V387.484C75.5807 387.768 75.6387 388.037 75.7291 388.29H70.742ZM70.196 381.4C71.525 380.734 73.0807 380.795 74.3549 381.56L75.6137 382.315C75.5992 382.424 75.5807 382.532 75.5807 382.645V384.032L74.1387 383.672C73.4992 383.511 72.8226 383.511 72.1831 383.672C70.6662 384.051 69.546 385.257 69.2291 386.737C68.6533 386.117 68.3226 385.299 68.3226 384.432C68.3226 383.14 69.0412 381.978 70.196 381.4Z" fill="#FFCE51"/>
<path d="M101.387 422.161V418.936H99.7742V418.561L100.493 418.082C101.558 417.372 102.194 416.184 102.194 414.903C102.194 413.623 101.558 412.435 100.493 411.725L99.7742 411.246V408.884L100.493 408.405C101.558 407.694 102.194 406.507 102.194 405.226C102.194 403.945 101.558 402.757 100.493 402.048L99.7742 401.569V397.819C100.711 397.486 101.387 396.598 101.387 395.548C101.387 394.927 101.144 394.365 100.758 393.936C101.145 393.507 101.387 392.944 101.387 392.323C101.387 391.248 100.677 390.344 99.7057 390.031C99.3807 388.131 97.7323 386.677 95.742 386.677C93.7516 386.677 92.1032 388.131 91.7782 390.031C90.8065 390.344 90.0968 391.248 90.0968 392.323C90.0968 392.944 90.3395 393.507 90.7258 393.936C90.3387 394.365 90.0968 394.927 90.0968 395.548C90.0968 396.598 90.7734 397.486 91.7097 397.819V399.486L90.9024 399.082L90.9049 402.327C90.9049 403.129 91.2081 403.873 91.7097 404.445V409.163L90.9024 408.759L90.9049 412.005C90.9049 412.807 91.2081 413.551 91.7097 414.123V418.936H90.0968V422.161H88.4839V427H103V422.161H101.387ZM100.581 414.903C100.581 415.643 100.213 416.33 99.5976 416.74L99.2355 416.982C98.0339 415.152 96.096 413.908 93.8976 413.594C93.1113 413.482 92.5186 412.799 92.5178 412.003L92.517 411.365C94.0944 412.098 95.8355 412.484 97.5734 412.484H98.7234L99.5976 413.067C100.213 413.477 100.581 414.164 100.581 414.903ZM98.1613 418.343V418.936H93.3226V415.108C93.4395 415.139 93.5541 415.175 93.6758 415.192C95.5903 415.465 97.2508 416.64 98.1613 418.343ZM93.3226 409.942V405.431C93.4395 405.461 93.5541 405.498 93.6758 405.515C95.5903 405.788 97.2508 406.963 98.1613 408.665V410.871H97.5734C96.1129 410.871 94.6557 410.541 93.3226 409.942ZM100.581 405.226C100.581 405.965 100.213 406.652 99.5976 407.062L99.2355 407.304C98.0339 405.474 96.096 404.231 93.8976 403.917C93.1113 403.805 92.5186 403.122 92.5178 402.326L92.517 401.687C94.0944 402.42 95.8355 402.807 97.5734 402.807H98.7234L99.5976 403.39C100.213 403.799 100.581 404.486 100.581 405.226ZM93.3226 400.265V397.968H98.1613V401.194H97.5734C96.1129 401.194 94.6557 400.864 93.3226 400.265ZM95.742 388.29C96.792 388.29 97.6791 388.967 98.0129 389.903H93.4718C93.8049 388.967 94.692 388.29 95.742 388.29ZM92.5161 391.516H98.9678C99.4129 391.516 99.7742 391.877 99.7742 392.323C99.7742 392.768 99.4129 393.129 98.9678 393.129H92.5161C92.071 393.129 91.7097 392.768 91.7097 392.323C91.7097 391.877 92.071 391.516 92.5161 391.516ZM92.5161 394.742H98.9678C99.4129 394.742 99.7742 395.103 99.7742 395.548C99.7742 395.994 99.4129 396.355 98.9678 396.355H92.5161C92.071 396.355 91.7097 395.994 91.7097 395.548C91.7097 395.103 92.071 394.742 92.5161 394.742ZM101.387 425.387H90.0968V423.774H93.3226V422.161H91.7097V420.548H99.7742V422.161H94.9355V423.774H101.387V425.387Z" fill="#FFCE51"/>
<path d="M65.9032 418.936H64.2903V414.123C64.7919 413.552 65.0952 412.807 65.0952 412.006L65.0976 408.76L64.2903 409.163V404.446C64.7919 403.875 65.0952 403.13 65.0952 402.328L65.0976 399.082L64.2903 399.486V397.819C65.2266 397.486 65.9032 396.598 65.9032 395.548C65.9032 394.927 65.6605 394.365 65.2742 393.936C65.6613 393.507 65.9032 392.944 65.9032 392.323C65.9032 391.248 65.1935 390.344 64.2218 390.031C63.8968 388.131 62.2484 386.677 60.2581 386.677C58.2677 386.677 56.6194 388.131 56.2944 390.031C55.3226 390.344 54.6129 391.248 54.6129 392.323C54.6129 392.944 54.8556 393.507 55.2419 393.936C54.8556 394.365 54.6129 394.927 54.6129 395.548C54.6129 396.598 55.2895 397.486 56.2258 397.819V401.569L55.5073 402.048C54.4419 402.757 53.8065 403.945 53.8065 405.226C53.8065 406.507 54.4419 407.694 55.5073 408.404L56.2258 408.883V411.246L55.5073 411.725C54.4419 412.435 53.8065 413.623 53.8065 414.903C53.8065 416.184 54.4419 417.372 55.5073 418.082L56.2258 418.561V418.936H54.6129V422.161H53V427H67.5161V422.161H65.9032V418.936ZM60.2581 388.29C61.3081 388.29 62.1952 388.967 62.529 389.903H57.9871C58.321 388.967 59.2081 388.29 60.2581 388.29ZM57.0323 391.516H63.4839C63.929 391.516 64.2903 391.877 64.2903 392.323C64.2903 392.768 63.929 393.129 63.4839 393.129H57.0323C56.5871 393.129 56.2258 392.768 56.2258 392.323C56.2258 391.877 56.5871 391.516 57.0323 391.516ZM57.0323 394.742H63.4839C63.929 394.742 64.2903 395.103 64.2903 395.548C64.2903 395.994 63.929 396.355 63.4839 396.355H57.0323C56.5871 396.355 56.2258 395.994 56.2258 395.548C56.2258 395.103 56.5871 394.742 57.0323 394.742ZM62.6774 397.968V400.265C61.3444 400.864 59.8871 401.194 58.4266 401.194H57.8387V397.968H62.6774ZM55.4194 405.226C55.4194 404.486 55.7871 403.799 56.4024 403.39L57.2766 402.807H58.4266C60.1645 402.807 61.9048 402.42 63.4839 401.687L63.4831 402.326C63.4823 403.121 62.8895 403.805 62.0968 403.918C59.904 404.232 57.9677 405.475 56.7653 407.303L56.4032 407.062C55.7871 406.652 55.4194 405.965 55.4194 405.226ZM62.6774 405.432V409.942C61.3444 410.541 59.8871 410.871 58.4266 410.871H57.8387V408.666C58.7492 406.965 60.4097 405.789 62.3282 405.515C62.4484 405.498 62.5613 405.461 62.6774 405.432ZM55.4194 414.903C55.4194 414.164 55.7871 413.477 56.4024 413.067L57.2766 412.484H58.4266C60.1645 412.484 61.9048 412.098 63.4839 411.365L63.4831 412.003C63.4823 412.798 62.8895 413.482 62.0968 413.595C59.904 413.909 57.9677 415.152 56.7653 416.981L56.4032 416.74C55.7871 416.33 55.4194 415.643 55.4194 414.903ZM62.6774 415.109V418.936H57.8387V418.344C58.7492 416.642 60.4097 415.466 62.3282 415.192C62.4484 415.175 62.5613 415.139 62.6774 415.109ZM56.2258 420.548H64.2903V422.161H56.2258V420.548ZM65.9032 425.387H54.6129V423.774H65.9032V425.387Z" fill="#FFCE51"/>
<g clip-path="url(#clip1)">
<path d="M130 382.762C128.23 382.762 126.511 383.123 124.891 383.835C124.397 384.052 124.173 384.628 124.39 385.122C124.607 385.615 125.183 385.84 125.677 385.623C127.048 385.02 128.502 384.715 130 384.715C135.923 384.715 140.742 389.534 140.742 395.457C140.742 401.38 135.923 406.199 130 406.199C124.076 406.199 119.258 401.38 119.258 395.457C119.258 393.574 119.755 391.716 120.697 390.086C120.966 389.619 120.806 389.021 120.339 388.752C119.872 388.482 119.275 388.642 119.005 389.109C117.892 391.037 117.305 393.232 117.305 395.457C117.305 402.457 123 408.152 130 408.152C137 408.152 142.695 402.457 142.695 395.457C142.695 388.457 137 382.762 130 382.762Z" fill="#FFCE51"/>
<path d="M148.302 394.802L145.208 391.382L146.178 386.873C146.283 386.383 146 385.892 145.522 385.738L141.133 384.324L139.718 379.934C139.564 379.457 139.074 379.173 138.583 379.279L134.075 380.248L130.655 377.155C130.283 376.818 129.716 376.818 129.344 377.155L125.925 380.248L121.416 379.279C120.925 379.173 120.435 379.457 120.281 379.934L118.866 384.324L114.477 385.738C113.999 385.892 113.716 386.383 113.822 386.873L114.791 391.382L111.697 394.802C111.361 395.174 111.361 395.74 111.697 396.112L114.791 399.532L113.822 404.041C113.716 404.531 113.999 405.022 114.477 405.175L118.866 406.59L118.903 406.705L114.471 423.247C114.367 423.634 114.511 424.046 114.834 424.285C115.156 424.523 115.592 424.54 115.932 424.327L120.875 421.23L123.607 426.383C123.777 426.705 124.111 426.902 124.469 426.902C124.506 426.902 124.543 426.9 124.58 426.896C124.978 426.851 125.309 426.566 125.413 426.178L128.858 413.319L129.344 413.759C129.531 413.928 129.765 414.012 130 414.012C130.234 414.012 130.469 413.928 130.655 413.759L131.141 413.319L134.587 426.178C134.69 426.566 135.021 426.851 135.42 426.896C135.457 426.9 135.494 426.902 135.53 426.902C135.889 426.902 136.222 426.705 136.393 426.383L139.125 421.23L144.067 424.327C144.407 424.54 144.843 424.523 145.166 424.285C145.489 424.046 145.632 423.634 145.529 423.246L144.297 418.648C144.157 418.127 143.622 417.818 143.1 417.958C142.58 418.097 142.27 418.633 142.41 419.154L142.999 421.353L139.272 419.017C139.042 418.874 138.763 418.832 138.501 418.902C138.238 418.972 138.018 419.148 137.891 419.388L135.83 423.274L132.768 411.847L134.074 410.665L138.583 411.634C139.073 411.741 139.564 411.457 139.718 410.98L139.992 410.13L140.667 412.648C140.784 413.084 141.178 413.372 141.609 413.372C141.693 413.372 141.778 413.361 141.863 413.339C142.384 413.199 142.693 412.664 142.553 412.143L141.096 406.704L141.133 406.59L145.522 405.175C145.999 405.021 146.283 404.531 146.177 404.041L145.208 399.532L148.302 396.112C148.638 395.74 148.638 395.174 148.302 394.802ZM124.169 423.274L122.109 419.388C121.982 419.148 121.76 418.972 121.498 418.902C121.236 418.832 120.957 418.874 120.727 419.018L117 421.353L120.007 410.13L120.281 410.98C120.435 411.457 120.926 411.741 121.416 411.635L125.925 410.666L127.231 411.847L124.169 423.274ZM143.424 398.593C143.214 398.826 143.128 399.146 143.194 399.453L144.083 403.588L140.058 404.885C139.759 404.982 139.524 405.216 139.428 405.515L138.131 409.54L133.996 408.651C133.689 408.585 133.369 408.67 133.136 408.881L130 411.718L126.864 408.881C126.682 408.717 126.448 408.629 126.208 408.629C126.14 408.629 126.071 408.636 126.003 408.651L121.869 409.54L120.571 405.515C120.475 405.216 120.241 404.981 119.942 404.885L115.917 403.588L116.806 399.453C116.872 399.146 116.786 398.826 116.575 398.593L113.739 395.457L116.575 392.321C116.786 392.088 116.872 391.768 116.806 391.46L115.917 387.326L119.942 386.029C120.241 385.933 120.475 385.698 120.571 385.399L121.869 381.374L126.003 382.263C126.31 382.33 126.631 382.243 126.864 382.033L130 379.196L133.136 382.032C133.369 382.243 133.689 382.329 133.996 382.263L138.131 381.374L139.428 385.399C139.524 385.698 139.759 385.933 140.058 386.029L144.083 387.326L143.194 391.46C143.128 391.768 143.214 392.088 143.424 392.321L146.261 395.457L143.424 398.593Z" fill="#FFCE51"/>
<path d="M142.1 414.159C141.577 414.29 141.259 414.821 141.39 415.345C141.501 415.788 141.899 416.084 142.336 416.084C142.415 416.084 142.494 416.075 142.574 416.055C143.097 415.924 143.415 415.394 143.284 414.871L143.284 414.869C143.153 414.346 142.623 414.028 142.1 414.159Z" fill="#FFCE51"/>
<path d="M125.292 397.545L125.028 400.637C124.983 401.173 125.218 401.683 125.655 402C125.922 402.193 126.234 402.293 126.55 402.293C126.75 402.293 126.953 402.253 127.146 402.171L129.999 400.965L132.795 402.147C133.303 402.378 133.871 402.333 134.318 402.023C134.768 401.711 135.019 401.179 134.973 400.634L134.707 397.545L136.713 395.23C137.079 394.819 137.201 394.266 137.039 393.747C136.877 393.231 136.448 392.835 135.923 392.714L132.909 392.014L131.318 389.373C131.043 388.906 130.555 388.625 130.011 388.621C130.007 388.621 130.002 388.621 129.998 388.621C129.457 388.621 128.969 388.897 128.689 389.361L127.09 392.014L124.08 392.713C123.552 392.833 123.137 393.214 122.967 393.731C122.799 394.245 122.91 394.796 123.264 395.206L125.292 397.545ZM127.934 393.822C128.191 393.763 128.413 393.602 128.549 393.375L129.999 390.97L131.45 393.375C131.586 393.602 131.808 393.763 132.065 393.822L134.798 394.458L132.961 396.577C132.788 396.777 132.703 397.038 132.726 397.301L132.966 400.099L130.38 399.005C130.258 398.954 130.129 398.928 129.999 398.928C129.87 398.928 129.741 398.954 129.619 399.005L127.034 400.098L127.274 397.3C127.296 397.037 127.211 396.777 127.038 396.577L125.201 394.458L127.934 393.822Z" fill="#FFCE51"/>
<path d="M121.606 388.256C121.859 388.256 122.111 388.158 122.303 387.963L122.315 387.951C122.692 387.566 122.686 386.948 122.301 386.57C121.916 386.193 121.298 386.198 120.92 386.584L120.908 386.596C120.531 386.981 120.537 387.599 120.922 387.977C121.112 388.163 121.359 388.256 121.606 388.256Z" fill="#FFCE51"/>
</g>
<path d="M166.375 397.117C165.836 397.117 165.398 397.555 165.398 398.094C165.398 398.633 165.836 399.07 166.375 399.07C166.914 399.07 167.352 398.633 167.352 398.094C167.352 397.555 166.914 397.117 166.375 397.117Z" fill="#FFCE51"/>
<path d="M201.531 385.398C190.889 385.398 185.171 379.712 183.291 377.843C182.909 377.463 182.717 377.272 182.514 377.146C182.199 376.951 181.801 376.951 181.485 377.146C181.346 377.233 181.234 377.342 180.963 377.607C180.268 378.287 178.638 379.878 176.119 381.454C171.933 384.071 167.34 385.398 162.469 385.398C161.929 385.398 161.492 385.836 161.492 386.375V399.187C161.492 405.337 163.432 411.196 167.103 416.13C171.084 421.479 176.275 425.325 181.719 426.959C181.811 426.986 181.905 427 182 427C182.095 427 182.189 426.986 182.281 426.959C187.725 425.325 192.916 421.479 196.897 416.13C200.568 411.196 202.508 405.337 202.508 399.187V386.375C202.508 385.836 202.071 385.398 201.531 385.398ZM200.555 399.187C200.555 404.914 198.748 410.37 195.33 414.964C191.667 419.886 186.943 423.44 182 425.002C177.057 423.44 172.333 419.886 168.67 414.964C165.252 410.37 163.445 404.914 163.445 399.187V387.335C168.326 387.168 172.933 385.749 177.155 383.11C179.516 381.633 181.14 380.15 182.005 379.318C184.053 381.352 189.894 387.008 200.555 387.337V399.187Z" fill="#FFCE51"/>
<path d="M197.733 389.099C192.357 388.504 187.258 386.329 182.576 382.634C182.225 382.357 181.732 382.354 181.377 382.625C176.739 386.174 171.37 388.467 166.259 389.079C165.768 389.138 165.398 389.555 165.398 390.049V394.188C165.398 394.727 165.836 395.164 166.375 395.164C166.914 395.164 167.352 394.727 167.352 394.188V390.901C171.067 390.336 176.342 388.762 181.962 384.628C186.519 388.081 191.453 390.198 196.648 390.931V399.187C196.648 404.067 195.108 408.716 192.195 412.63C189.404 416.383 185.885 419.127 182 420.583C178.115 419.127 174.596 416.384 171.806 412.632C169.455 409.473 167.969 405.756 167.51 401.881C167.446 401.346 166.961 400.962 166.425 401.026C165.889 401.09 165.507 401.576 165.57 402.111C166.07 406.325 167.685 410.366 170.239 413.798C173.339 417.966 177.293 420.99 181.674 422.543C181.779 422.58 181.89 422.599 182 422.599C182.11 422.599 182.221 422.58 182.326 422.543C186.707 420.99 190.662 417.965 193.762 413.796C196.928 409.542 198.602 404.49 198.602 399.187V390.069C198.602 389.572 198.227 389.154 197.733 389.099Z" fill="#FFCE51"/>
<path d="M191.694 398.407C191.579 398.054 191.274 397.796 190.906 397.743L185.33 396.933L182.838 391.88C182.673 391.547 182.334 391.336 181.962 391.336C181.59 391.336 181.251 391.547 181.086 391.88L178.593 396.933L173.017 397.743C172.649 397.796 172.343 398.054 172.228 398.407C172.114 398.761 172.209 399.149 172.476 399.408L176.51 403.341L175.558 408.895C175.495 409.261 175.646 409.631 175.947 409.85C176.117 409.973 176.318 410.036 176.521 410.036C176.676 410.036 176.832 409.999 176.975 409.924L181.962 407.302L186.948 409.924C187.277 410.097 187.676 410.068 187.976 409.85C188.277 409.631 188.428 409.261 188.365 408.894L187.413 403.341L191.447 399.408C191.713 399.149 191.809 398.761 191.694 398.407ZM185.682 402.301C185.451 402.525 185.346 402.848 185.401 403.165L186.105 407.274L182.416 405.334C182.132 405.184 181.792 405.184 181.507 405.334L177.817 407.274L178.522 403.165C178.576 402.848 178.471 402.525 178.241 402.301L175.256 399.391L179.381 398.792C179.699 398.746 179.974 398.546 180.117 398.258L181.962 394.52L183.806 398.258C183.948 398.546 184.223 398.746 184.541 398.792L188.667 399.391L185.682 402.301Z" fill="#FFCE51"/>
<path d="M35.9414 432.11L68.2608 460.201C72.4287 463.824 78.6364 463.795 82.7702 460.133L114.409 432.11" stroke="#056CDE" stroke-width="3"/>
<path d="M35.9414 487.26L62.9609 455.799" stroke="#056CDE" stroke-width="3"/>
<path d="M114.409 487.63L87.3896 456.169" stroke="#056CDE" stroke-width="3"/>
<path d="M77.7662 441.364H48.1558" stroke="#056CDE" stroke-width="3" stroke-linecap="round" stroke-linejoin="round"/>
<path d="M88.8702 441.364H85.1689" stroke="#056CDE" stroke-width="3" stroke-linecap="round" stroke-linejoin="round"/>
<path d="M14.104 449.507H10.4027" stroke="#056CDE" stroke-width="3" stroke-linecap="round" stroke-linejoin="round"/>
<path d="M34.831 449.507H21.5063" stroke="#056CDE" stroke-width="3" stroke-linecap="round" stroke-linejoin="round"/>
<path d="M23.7274 466.532H10.4027" stroke="#056CDE" stroke-width="3" stroke-linecap="round" stroke-linejoin="round"/>
<path d="M34.8312 458.389H3" stroke="#056CDE" stroke-width="3" stroke-linecap="round" stroke-linejoin="round"/>
<path d="M69.9934 449.507H57.0388" stroke="#056CDE" stroke-width="3" stroke-linecap="round" stroke-linejoin="round"/>
<rect x="34.8311" y="431" width="80.6883" height="57" rx="4" stroke="#056CDE" stroke-width="3"/>
<path d="M104.786 476.896H82.5779" stroke="#056CDE" stroke-width="3" stroke-linecap="round" stroke-linejoin="round"/>
<path fill-rule="evenodd" clip-rule="evenodd" d="M108.7 502C107.1 502 106 502.8 105.6 503.4L105.4 502.4H103V512.1H105.7V506.3C105.7 506 105.7 505.7 105.8 505.6C106 505.1 106.7 504.5 107.5 504.5C108.6 504.5 109.3 505.3 109.3 506.6V512.2H112V506.2C112 503.2 110.6 502 108.7 502ZM98.3 512H101V502.3H98.3V512ZM99.7 498C98.7 498 98 498.6 98 499.5C98 500.4 98.7 501 99.7 501C100.8 501 101.4 500.4 101.4 499.5C101.3 498.6 100.7 498 99.7 498Z" fill="#056CDE"/>
<path fill-rule="evenodd" clip-rule="evenodd" d="M13.2214 508.213L13.2209 503.419L17.7982 505.824L13.2214 508.213ZM23.33 502.589C23.33 502.589 23.1637 501.413 22.6542 500.895C22.0077 500.215 21.2831 500.212 20.9511 500.173C18.5721 500 15.0037 500 15.0037 500H14.9963C14.9963 500 11.4279 500 9.04894 500.173C8.71638 500.212 7.99228 500.215 7.34522 500.895C6.83575 501.413 6.67 502.589 6.67 502.589C6.67 502.589 6.5 503.969 6.5 505.35V506.644C6.5 508.025 6.67 509.406 6.67 509.406C6.67 509.406 6.83575 510.581 7.34522 511.099C7.99228 511.779 8.84175 511.757 9.22 511.828C10.58 511.959 15 512 15 512C15 512 18.5721 511.995 20.9511 511.822C21.2831 511.782 22.0077 511.779 22.6542 511.099C23.1637 510.581 23.33 509.406 23.33 509.406C23.33 509.406 23.5 508.025 23.5 506.644V505.35C23.5 503.969 23.33 502.589 23.33 502.589Z" fill="#056CDE"/>
<path fill-rule="evenodd" clip-rule="evenodd" d="M42.1212 500.005C38.9672 499.902 36.0692 502.609 36.0162 505.7C35.8152 508.227 37.5092 510.705 39.9032 511.598C42.2872 512.498 45.3442 511.885 46.8662 509.785C47.8722 508.459 48.0882 506.751 47.9712 505.147C47.9712 505.147 44.0702 505.141 42.1212 505.147C42.1186 505.73 42.1204 506.309 42.1223 506.891C42.1226 506.989 42.1229 507.088 42.1232 507.187C42.8386 507.21 43.5552 507.212 44.2716 507.214C44.7227 507.216 45.1736 507.217 45.6242 507.224C45.1102 509.759 41.5912 510.582 39.7302 508.926C37.8162 507.473 37.9072 504.288 39.8972 502.939C41.2882 501.85 43.2662 502.119 44.6572 503.062C45.2042 502.566 45.7152 502.036 46.2092 501.486C45.0512 500.581 43.6312 499.936 42.1212 500.005ZM53.0006 503H51.0026C50.9986 503.376 51.0001 503.753 51.0016 504.132C51.0027 504.421 51.0039 504.711 51.0026 505C50.7061 505.001 50.4086 505 50.1112 504.999C49.7397 504.998 49.3684 504.997 48.9996 505V506.999C49.3316 507.003 49.6667 507.001 50.0016 506.999C50.3364 506.997 50.6711 506.996 51.0026 506.999C51.0062 507.339 51.0045 507.682 51.0028 508.025C51.0012 508.351 50.9997 508.677 51.0026 509H53.0006C53.0019 508.713 53.0007 508.424 52.9996 508.135C52.9981 507.757 52.9966 507.377 53.0006 506.999C53.3337 506.996 53.6678 506.997 54.0016 506.999C54.3351 507.001 54.6682 507.003 54.9996 506.999V505C54.6766 504.997 54.3512 504.999 54.0258 505C53.6832 505.002 53.3406 505.004 53.0006 505C52.9966 504.624 52.9981 504.245 52.9996 503.866C53.0007 503.576 53.0019 503.287 53.0006 503Z" fill="#056CDE"/>
<path fill-rule="evenodd" clip-rule="evenodd" d="M69.3057 505.703C69.0499 506.119 68.9422 507.431 69.0303 508.301C69.0615 508.589 69.1128 508.828 69.1868 508.971C69.289 509.169 69.4612 509.287 69.6575 509.293C69.7834 509.3 69.8614 509.278 72.2254 508.506C72.2254 508.506 73.276 508.166 73.2805 508.163C73.5423 508.096 73.7184 507.851 73.7361 507.538C73.7527 507.218 73.5896 506.935 73.3213 506.833C73.3213 506.833 72.5813 506.526 72.5792 506.526C70.0391 505.461 69.9253 505.419 69.797 505.418C69.6011 505.41 69.426 505.51 69.3057 505.703ZM74.9884 513.635C75.0297 513.514 75.0342 513.431 75.0413 510.907C75.0413 510.907 75.0473 509.793 75.0478 509.781C75.0644 509.508 74.8913 509.26 74.6053 509.147C74.3118 509.033 73.9962 509.104 73.819 509.329C73.819 509.329 73.301 509.954 73.299 509.954C71.5185 512.077 71.4455 512.175 71.4017 512.301C71.3755 512.376 71.3644 512.454 71.374 512.533C71.3846 512.645 71.4339 512.757 71.5175 512.86C71.9298 513.359 73.9091 514.099 74.5409 513.989C74.7609 513.948 74.92 513.823 74.9884 513.635ZM79.0022 512.757C79.5987 512.515 80.901 510.833 80.9926 510.185C81.0239 509.96 80.9549 509.766 80.8019 509.642C80.7022 509.566 80.6247 509.536 78.2627 508.748C78.2627 508.748 77.2267 508.4 77.2131 508.394C76.9629 508.295 76.676 508.386 76.4837 508.628C76.2844 508.876 76.2532 509.201 76.4127 509.449L76.83 510.138C78.233 512.453 78.3397 512.616 78.4409 512.696C78.597 512.821 78.7953 512.842 79.0022 512.757ZM77.7825 506.799C80.4671 506.139 80.5708 506.103 80.677 506.033C80.8391 505.922 80.9207 505.736 80.9071 505.509C80.9071 505.501 80.9081 505.494 80.9071 505.486C80.8381 504.817 79.6823 503.074 79.1135 502.791C78.9121 502.693 78.7097 502.7 78.5436 502.813C78.4399 502.882 78.3629 502.986 76.9257 504.983C76.9257 504.983 76.2758 505.882 76.2683 505.891C76.0966 506.102 76.0951 506.406 76.2617 506.666C76.4349 506.935 76.7279 507.066 76.9962 506.99C76.9962 506.99 76.9851 507.009 76.9821 507.013C77.1145 506.962 77.3516 506.903 77.7825 506.799ZM75.0862 504.547C75.0404 503.466 74.7208 498.652 74.683 498.429C74.6276 498.227 74.4731 498.083 74.2491 498.025C73.5645 497.852 70.9453 498.599 70.4595 499.108C70.3039 499.273 70.2455 499.477 70.2924 499.656C70.3684 499.816 73.6148 505.004 73.6148 505.004C74.095 505.795 74.4862 505.672 74.614 505.632C74.7414 505.591 75.1305 505.469 75.0862 504.547Z" fill="#056CDE"/>
<path d="M143.165 502.433C143.09 504.104 141.921 506.393 139.66 509.298C137.325 512.334 135.348 513.852 133.733 513.852C132.73 513.852 131.886 512.928 131.194 511.081C130.73 509.387 130.27 507.692 129.806 505.998C129.291 504.151 128.743 503.227 128.154 503.227C128.024 503.227 127.574 503.496 126.808 504.035L126 502.995C126.849 502.252 127.685 501.505 128.506 500.762C129.639 499.788 130.484 499.272 131.05 499.221C132.387 499.091 133.208 500.006 133.519 501.96C133.854 504.072 134.086 505.381 134.216 505.896C134.601 507.646 135.023 508.519 135.487 508.519C135.845 508.519 136.388 507.952 137.107 506.815C137.827 505.678 138.212 504.815 138.263 504.22C138.365 503.241 137.98 502.749 137.107 502.749C136.694 502.749 136.272 502.842 135.836 503.032C136.68 500.27 138.291 498.924 140.672 499.003C142.436 499.054 143.267 500.196 143.165 502.433Z" fill="#056CDE"/>
<defs>
<clipPath id="clip0">
<rect width="70" height="70" fill="white" transform="translate(145 198)"/>
</clipPath>
<clipPath id="clip1">
<rect width="50" height="50" fill="white" transform="translate(105 377)"/>
</clipPath>
</defs>
</svg>
